<svg width="172" height="54" fill="none" xmlns="http://www.w3.org/2000/svg"><g clip-path="url(#clip0)"><path d="M23.364 24.69L2.07 35.33V13.372L23.364 2.73v21.96zm23.075 10.64L25.146 24.69V2.73L46.44 13.371v21.96zM25.146 48.843L46.44 38.2v2.451L25.146 51.292v-2.45zM2.07 38.2l21.294 10.642v2.45L2.07 40.652V38.2zm7.538-4.655l.511.221-5.729 3.548-1.222-.548 6.44-3.221zm7.546-3.769l5.557 2.774-5.556 2.775-5.556-2.775 5.555-2.774zm15.088 5.548l-5.555-2.774 5.112-2.552 5.556 2.774-5.113 2.552zm7.989 3.997l-6-2.999 5.112-2.555 6 2.998-5.113 2.556zm-7.545 3.769l-6-2.999 5.557-2.777 6 2.998-5.557 2.778zm-13.543-6.768l5.555-2.777 5.557 2.777-5.557 2.777-5.555-2.777zm5.112-10.093l5.556 2.777-5.113 2.556-5.555-2.778 5.112-2.555zM.358 41.51a.9.9 0 00.082.144c.027.05.06.098.096.142a.851.851 0 00.147.116c.033.029 23.175 11.608 23.175 11.608a.87.87 0 00.77.005l23.096-11.534c.088-.058.171-.123.25-.194a2.15 2.15 0 00.178-.287.855.855 0 00.037-.188c.012-.04.026-28.5.026-28.5a2.176 2.176 0 00-.063-.312 2.124 2.124 0 00-.178-.287.877.877 0 00-.148-.114C47.794 12.08 24.652.5 24.652.5a.867.867 0 00-.77-.005L.787 12.03a2.141 2.141 0 00-.25.194.853.853 0 00-.096.143.843.843 0 00-.082.144.862.862 0 00-.038.189C.31 12.74.295 41.2.295 41.2c.031.187.044.25.063.31z" fill="#000"/><path d="M2.719 36.722l21.48-10.724 21.069 10.724L24.2 47.446 2.719 36.722z" fill="#F1F1F1"/><path d="M2.719 36.722l21.48-10.724s-9.914 9.487 0 21.448c9.915 11.96-21.48-10.724-21.48-10.724z" fill="url(#paint0_linear)"/></g><path d="M59.46 19.78c-.877 0-1.67-.19-2.38-.568a4.285 4.285 0 01-1.655-1.559c-.395-.668-.592-1.417-.592-2.247 0-.83.197-1.575.592-2.236a4.256 4.256 0 011.655-1.57c.71-.379 1.503-.568 2.38-.568.879 0 1.668.19 2.369.568a4.26 4.26 0 011.655 1.57c.403.661.604 1.406.604 2.236 0 .83-.201 1.579-.604 2.247a4.285 4.285 0 01-1.655 1.559c-.7.379-1.49.568-2.368.568zm0-1.668c.5 0 .951-.112 1.354-.338a2.47 2.47 0 00.942-.966c.234-.411.35-.878.35-1.402 0-.524-.116-.99-.35-1.402a2.388 2.388 0 00-.942-.954 2.647 2.647 0 00-1.353-.35c-.5 0-.95.116-1.354.35a2.47 2.47 0 00-.954.954 2.86 2.86 0 00-.339 1.402c0 .524.113.99.339 1.402.233.41.552.733.954.966.403.226.854.338 1.354.338zm10.172 1.668c-.878 0-1.671-.19-2.38-.568a4.284 4.284 0 01-1.656-1.559c-.394-.668-.592-1.417-.592-2.247 0-.83.198-1.575.592-2.236a4.255 4.255 0 011.656-1.57c.709-.379 1.502-.568 2.38-.568.878 0 1.668.19 2.368.568a4.255 4.255 0 011.656 1.57c.402.661.604 1.406.604 2.236 0 .83-.202 1.579-.604 2.247A4.284 4.284 0 0172 19.212c-.7.379-1.49.568-2.368.568zm0-1.668c.5 0 .95-.112 1.353-.338.403-.233.717-.556.943-.966.234-.411.35-.878.35-1.402 0-.524-.117-.99-.35-1.402a2.388 2.388 0 00-.943-.954 2.648 2.648 0 00-1.353-.35c-.5 0-.95.116-1.353.35a2.47 2.47 0 00-.955.954 2.87 2.87 0 00-.338 1.402c0 .524.113.99.338 1.402.234.41.552.733.955.966.403.226.854.338 1.353.338zm10.172 1.668c-.879 0-1.672-.19-2.38-.568a4.285 4.285 0 01-1.656-1.559c-.395-.668-.592-1.417-.592-2.247 0-.83.197-1.575.592-2.236a4.256 4.256 0 011.655-1.57c.71-.379 1.502-.568 2.38-.568.879 0 1.668.19 2.369.568a4.26 4.26 0 011.655 1.57c.403.661.604 1.406.604 2.236 0 .83-.201 1.579-.604 2.247a4.285 4.285 0 01-1.655 1.559c-.701.379-1.49.568-2.368.568zm0-1.668c.499 0 .95-.112 1.353-.338.403-.233.717-.556.942-.966.234-.411.35-.878.35-1.402 0-.524-.116-.99-.35-1.402a2.388 2.388 0 00-.942-.954 2.648 2.648 0 00-1.353-.35c-.5 0-.951.116-1.354.35a2.47 2.47 0 00-.954.954 2.86 2.86 0 00-.339 1.402c0 .524.113.99.339 1.402.233.41.552.733.954.966a2.72 2.72 0 001.354.338zm8.941-1.945l1.534-2.127h1.535l-1.498 2.127 1.498 2.115H90.28l-1.535-2.115zm2.574 0l1.534-2.127h1.535l-1.499 2.127 1.499 2.115h-1.535l-1.534-2.115zm12.123 3.468l-.012-5.063-2.489 4.169h-.87l-2.49-4.072v4.966h-1.836v-8.458h1.62l3.165 5.256 3.117-5.256h1.619l.012 8.458h-1.836zm7.937.145c-.862 0-1.643-.185-2.344-.556a4.3 4.3 0 01-1.643-1.559c-.395-.668-.592-1.421-.592-2.26 0-.837.197-1.586.592-2.247a4.182 4.182 0 011.643-1.558c.701-.379 1.486-.568 2.356-.568.733 0 1.394.129 1.982.386a3.971 3.971 0 011.498 1.112l-1.257 1.16c-.571-.66-1.28-.99-2.126-.99-.524 0-.991.116-1.402.35a2.44 2.44 0 00-.966.954 2.86 2.86 0 00-.339 1.402c0 .524.113.99.339 1.402.233.41.555.733.966.966a2.86 2.86 0 001.402.338c.846 0 1.555-.334 2.126-1.002l1.257 1.16a3.919 3.919 0 01-1.498 1.123c-.596.258-1.261.387-1.994.387zm8.042-3.553h-1.353v3.408h-1.945v-8.458h1.945v3.42h1.402l2.223-3.42h2.066l-2.767 4.084 2.852 4.374h-2.224l-2.199-3.408zm4.862 2.055l1.498-2.115-1.498-2.127h1.535l1.534 2.127-1.534 2.115h-1.535zm2.574 0l1.498-2.115-1.498-2.127h1.534l1.535 2.127-1.535 2.115h-1.534zM61.315 24.09v6.873h-.717v-6.244h-4.35v6.244h-.716V24.09h5.783zm4.282 6.922a2.71 2.71 0 01-1.345-.334 2.499 2.499 0 01-.942-.942c-.23-.4-.344-.851-.344-1.355s.114-.956.343-1.355c.23-.4.544-.71.943-.933.4-.222.848-.334 1.345-.334s.946.112 1.345.334c.4.223.71.534.933.933.229.4.343.85.343 1.355 0 .504-.114.955-.343 1.355a2.44 2.44 0 01-.933.942c-.4.223-.848.334-1.345.334zm0-.619c.367 0 .694-.082.982-.245.294-.17.523-.41.687-.717.163-.307.245-.658.245-1.05 0-.393-.081-.743-.245-1.05a1.704 1.704 0 00-.687-.707 1.893 1.893 0 00-.982-.256 1.94 1.94 0 00-.992.256 1.783 1.783 0 00-.687.706 2.201 2.201 0 00-.245 1.05c0 .393.081.744.245 1.051.17.308.4.547.687.717.295.163.625.245.992.245zm8.303-4.594v5.164h-.696v-4.546H70.73l-.07 1.277c-.051 1.073-.176 1.898-.372 2.474-.197.576-.547.864-1.05.864-.138 0-.305-.027-.501-.079l.049-.599c.118.026.2.04.245.04.269 0 .471-.125.609-.374.137-.248.229-.556.275-.922.046-.367.085-.851.118-1.453l.088-1.846h3.78zm6.37 0l-2.58 5.781c-.21.485-.452.828-.727 1.031-.275.203-.605.304-.991.304-.25 0-.481-.039-.698-.117a1.51 1.51 0 01-.56-.354l.325-.52c.262.262.576.393.942.393a.929.929 0 00.6-.197c.17-.13.326-.353.47-.667l.226-.501-2.307-5.154h.727l1.944 4.388 1.943-4.388h.688zm3.103 5.213a2.81 2.81 0 01-1.375-.334 2.436 2.436 0 01-.942-.933 2.727 2.727 0 01-.344-1.364c0-.504.115-.956.344-1.355.229-.4.543-.71.942-.933a2.811 2.811 0 011.375-.334c.445 0 .84.089 1.188.266.353.17.631.422.834.756l-.52.353a1.592 1.592 0 00-.648-.57 1.883 1.883 0 00-.854-.196c-.373 0-.71.085-1.012.256a1.774 1.774 0 00-.697.706 2.203 2.203 0 00-.245 1.05c0 .4.082.753.245 1.061.17.301.403.537.697.707.301.163.639.245 1.012.245.307 0 .592-.062.854-.186a1.59 1.59 0 00.648-.57l.52.354a2.01 2.01 0 01-.834.766 2.71 2.71 0 01-1.188.255zm7.683-5.213l-2.582 5.782c-.209.485-.451.828-.726 1.031-.275.203-.606.304-.992.304-.248 0-.48-.039-.697-.117a1.51 1.51 0 01-.56-.354l.325-.52c.261.262.576.393.942.393a.928.928 0 00.599-.197c.17-.13.327-.353.471-.667l.226-.501-2.307-5.154h.727l1.943 4.388L90.37 25.8h.687zm4.019 5.164l-1.64-2.16-1.649 2.16h-.785l2.042-2.65-1.944-2.514h.785l1.552 2.022 1.55-2.022h.766l-1.943 2.513 2.061 2.65h-.795zm3.619-5.203c.674 0 1.191.17 1.551.51.36.334.54.831.54 1.492v3.2h-.668v-.804a1.59 1.59 0 01-.697.628c-.3.15-.66.226-1.08.226-.576 0-1.034-.138-1.374-.413a1.332 1.332 0 01-.51-1.09c0-.438.157-.791.47-1.06.321-.268.829-.402 1.522-.402h1.64v-.314c0-.445-.124-.782-.373-1.011-.249-.236-.612-.354-1.09-.354-.327 0-.641.056-.942.167-.301.105-.56.252-.776.442l-.314-.52c.262-.223.576-.393.942-.511a3.582 3.582 0 011.159-.187zm-.246 4.702c.393 0 .73-.088 1.012-.265a1.64 1.64 0 00.628-.785v-.845h-1.62c-.883 0-1.325.308-1.325.923 0 .301.114.54.343.717.23.17.55.255.962.255zm8.159-4.663v5.164h-.638v-1.709h-1.817l-1.197 1.709h-.756l1.286-1.807c-.399-.11-.707-.3-.923-.57-.216-.267-.324-.608-.324-1.02 0-.576.196-1.014.589-1.316.393-.3.929-.451 1.61-.451h2.17zm-3.662 1.787c0 .765.488 1.148 1.463 1.148h1.561v-2.317h-1.512c-1.008 0-1.512.39-1.512 1.169zm10.379 3.426c-.511 0-.969-.111-1.375-.334a2.436 2.436 0 01-.942-.933 2.728 2.728 0 01-.344-1.364c0-.504.115-.956.344-1.355.229-.4.543-.71.942-.933a2.813 2.813 0 011.375-.334c.445 0 .841.089 1.187.266.354.17.632.422.835.756l-.52.353a1.602 1.602 0 00-.648-.57 1.885 1.885 0 00-.854-.196c-.373 0-.711.085-1.012.256a1.774 1.774 0 00-.697.706 2.21 2.21 0 00-.245 1.05c0 .4.082.753.245 1.061.171.301.403.537.697.707.301.163.639.245 1.012.245.307 0 .592-.062.854-.186a1.6 1.6 0 00.648-.57l.52.354a2.006 2.006 0 01-.835.766c-.353.17-.749.255-1.187.255zm6.908-4.595h-1.953v4.546h-.697v-4.546h-1.954V25.8h4.604v.618zm4.869-.618v5.164h-.638v-1.709h-1.817l-1.197 1.709h-.756l1.286-1.807c-.399-.11-.707-.3-.923-.57-.216-.267-.324-.608-.324-1.02 0-.576.196-1.014.589-1.316.393-.3.93-.451 1.61-.451h2.17zm-3.662 1.787c0 .765.488 1.148 1.463 1.148h1.561v-2.317h-1.512c-1.008 0-1.512.39-1.512 1.169zm10.175 1.08h-1.119v2.297h-.697v-2.297h-1.119l-1.581 2.297h-.834l1.855-2.66-1.708-2.504h.756l1.512 2.268h1.119v-2.268h.697v2.268h1.119l1.522-2.268h.756l-1.708 2.513 1.855 2.65h-.834l-1.591-2.296zm5.46 0h-1.178v2.297h-.697v-5.164h.697v2.268h1.188l1.816-2.268h.756l-2.032 2.503 2.18 2.66h-.825l-1.905-2.296zm5.511-2.906c.674 0 1.191.17 1.551.51.36.334.54.831.54 1.492v3.2h-.668v-.804a1.59 1.59 0 01-.697.628c-.301.15-.661.226-1.08.226-.576 0-1.034-.138-1.374-.413a1.333 1.333 0 01-.511-1.09c0-.438.158-.791.472-1.06.32-.268.828-.402 1.521-.402h1.64v-.314c0-.445-.124-.782-.373-1.011-.249-.236-.612-.354-1.09-.354-.327 0-.641.056-.942.167-.301.105-.56.252-.776.442l-.314-.52c.262-.223.576-.393.942-.511a3.587 3.587 0 011.159-.187zm-.246 4.702c.393 0 .73-.088 1.012-.265.281-.183.49-.445.628-.785v-.845h-1.62c-.884 0-1.325.308-1.325.923 0 .301.114.54.343.717.229.17.55.255.962.255zm11.396-4.663v5.164h-.697v-4.546h-3.24v4.546h-.697v-5.164h4.634zm4.112 5.213c-.498 0-.946-.111-1.345-.334a2.501 2.501 0 01-.943-.942c-.229-.4-.343-.851-.343-1.355s.114-.956.343-1.355c.229-.4.543-.71.943-.933a2.713 2.713 0 011.345-.334c.497 0 .945.112 1.345.334.399.223.71.534.932.933.229.4.344.85.344 1.355 0 .504-.115.955-.344 1.355a2.431 2.431 0 01-.932.942c-.4.223-.848.334-1.345.334zm0-.619c.366 0 .693-.082.981-.245.295-.17.524-.41.688-.717.163-.307.245-.658.245-1.05a2.21 2.21 0 00-.245-1.05 1.705 1.705 0 00-.688-.707 1.891 1.891 0 00-.981-.256 1.94 1.94 0 00-.992.256 1.783 1.783 0 00-.687.706 2.198 2.198 0 00-.246 1.05c0 .393.082.744.246 1.051.17.308.399.547.687.717.295.163.625.245.992.245zm8.303-4.594v5.164h-.697v-4.546h-2.474l-.068 1.277c-.053 1.073-.177 1.898-.373 2.474-.197.576-.547.864-1.051.864a2.01 2.01 0 01-.501-.079l.049-.599c.118.026.2.04.246.04.268 0 .471-.125.609-.374.137-.248.229-.556.274-.922.046-.367.086-.851.118-1.453l.089-1.846h3.779zm3.759-.039c.674 0 1.191.17 1.551.51.36.334.54.831.54 1.492v3.2h-.668v-.804a1.59 1.59 0 01-.697.628c-.301.15-.661.226-1.08.226-.576 0-1.034-.138-1.374-.413a1.333 1.333 0 01-.511-1.09c0-.438.158-.791.472-1.06.32-.268.828-.402 1.521-.402h1.64v-.314c0-.445-.124-.782-.373-1.011-.249-.236-.612-.354-1.09-.354-.327 0-.641.056-.942.167-.301.105-.56.252-.776.442l-.314-.52c.262-.223.576-.393.942-.511a3.587 3.587 0 011.159-.187zm-.246 4.702c.393 0 .73-.088 1.012-.265a1.64 1.64 0 00.628-.785v-.845h-1.62c-.884 0-1.325.308-1.325.923 0 .301.114.54.343.717.229.17.55.255.962.255zM58.654 39.62c.7.164 1.05.586 1.05 1.267 0 .451-.166.798-.5 1.04-.334.242-.831.364-1.492.364h-2.347v-5.164h2.278c.589 0 1.05.114 1.384.343.334.23.5.557.5.982 0 .281-.078.524-.235.727-.15.196-.363.343-.638.441zm-2.611-.196h1.55c.4 0 .704-.075.914-.226.216-.15.324-.37.324-.658 0-.288-.108-.504-.324-.648-.21-.144-.514-.216-.913-.216h-1.551v1.748zm1.64 2.317c.444 0 .778-.072 1-.216.223-.144.334-.37.334-.678 0-.307-.101-.533-.304-.677-.203-.15-.524-.226-.962-.226h-1.708v1.797h1.64zm13.529-6.323v6.873h-.697v-5.498l-2.7 4.624h-.344l-2.7-4.595v5.469h-.697v-6.873h.6l2.984 5.096 2.955-5.096h.599zm4.279 6.922c-.497 0-.946-.112-1.345-.334-.4-.23-.713-.543-.942-.943a2.66 2.66 0 01-.344-1.354c0-.504.115-.956.344-1.355.229-.4.543-.71.942-.933.4-.222.848-.334 1.345-.334.498 0 .946.112 1.345.334.4.223.71.534.933.933.229.4.343.85.343 1.355 0 .504-.114.955-.343 1.354-.223.4-.534.714-.933.943-.4.222-.847.334-1.345.334zm0-.619c.367 0 .694-.082.982-.245.294-.17.523-.41.687-.717.164-.307.246-.658.246-1.05 0-.393-.082-.743-.246-1.05a1.704 1.704 0 00-.687-.708 1.893 1.893 0 00-.982-.255c-.366 0-.697.085-.991.255-.288.164-.517.4-.688.707a2.202 2.202 0 00-.245 1.05c0 .393.082.744.245 1.051.17.308.4.547.688.717.294.163.625.245.991.245zm6.271.619c-.51 0-.969-.112-1.374-.334a2.435 2.435 0 01-.943-.933 2.728 2.728 0 01-.344-1.364c0-.504.115-.956.344-1.355.23-.4.543-.71.943-.933a2.81 2.81 0 011.374-.334c.445 0 .841.089 1.188.265.353.17.632.423.834.756l-.52.354a1.59 1.59 0 00-.648-.57 1.883 1.883 0 00-.854-.196c-.373 0-.71.085-1.011.255a1.77 1.77 0 00-.697.707 2.202 2.202 0 00-.246 1.05c0 .4.082.753.246 1.06.17.302.402.538.697.708.3.163.638.245 1.011.245.308 0 .592-.062.854-.186a1.59 1.59 0 00.648-.57l.52.354a2.007 2.007 0 01-.834.765 2.71 2.71 0 01-1.188.256zm5.248-2.347h-1.18v2.298h-.697v-5.164h.697v2.267h1.188l1.816-2.267h.756l-2.03 2.503 2.18 2.66h-.825l-1.905-2.297zm7.117-.373c.7.164 1.05.586 1.05 1.267 0 .451-.166.798-.5 1.04-.334.242-.831.364-1.492.364h-2.347v-5.164h2.278c.59 0 1.05.114 1.384.343.334.23.501.557.501.982 0 .281-.078.524-.236.727-.15.196-.363.343-.638.441zm-2.611-.196h1.551c.4 0 .704-.075.913-.226.216-.15.324-.37.324-.658 0-.288-.108-.504-.324-.648-.21-.144-.514-.216-.913-.216h-1.551v1.748zm1.64 2.317c.444 0 .778-.072 1-.216.223-.144.335-.37.335-.678 0-.307-.102-.533-.305-.677-.203-.15-.523-.226-.962-.226h-1.708v1.797h1.64zm8.171-1.816h-4.32c.04.536.246.972.62 1.305.372.328.844.491 1.413.491.32 0 .615-.055.884-.167.268-.117.5-.288.697-.51l.392.451a2.203 2.203 0 01-.864.629c-.34.144-.716.216-1.129.216a2.93 2.93 0 01-1.413-.334 2.485 2.485 0 01-.953-.943 2.67 2.67 0 01-.343-1.354c0-.504.108-.956.324-1.355.222-.4.523-.71.903-.933a2.548 2.548 0 011.296-.334 2.5 2.5 0 011.286.334c.38.223.677.534.893.933.216.392.324.844.324 1.355l-.01.216zm-2.493-2.239c-.498 0-.916.16-1.257.481-.334.314-.523.727-.57 1.237h3.663c-.046-.51-.239-.923-.58-1.237-.333-.32-.752-.48-1.256-.48zm6.616-.559h.697v4.103l3.446-4.103h.618v5.164h-.697v-4.104l-3.436 4.104h-.628v-5.164zm11.459 5.213c-.498 0-.946-.112-1.345-.334-.4-.23-.714-.543-.943-.943a2.67 2.67 0 01-.344-1.354c0-.504.115-.956.344-1.355.229-.4.543-.71.943-.933a2.712 2.712 0 011.345-.334c.497 0 .945.112 1.345.334.399.223.71.534.932.933.229.4.344.85.344 1.355 0 .504-.115.955-.344 1.354-.222.4-.533.714-.932.943-.4.222-.848.334-1.345.334zm0-.619c.366 0 .693-.082.981-.245.295-.17.524-.41.688-.717a2.21 2.21 0 00.245-1.05c0-.393-.082-.743-.245-1.05a1.705 1.705 0 00-.688-.708 1.891 1.891 0 00-.981-.255c-.367 0-.697.085-.992.255-.288.164-.517.4-.687.707a2.198 2.198 0 00-.246 1.05c0 .393.082.744.246 1.051.17.308.399.547.687.717.295.163.625.245.992.245zm6.614-4.467a2.5 2.5 0 011.276.324c.38.21.674.508.884.894.209.38.314.814.314 1.305 0 .504-.111.953-.334 1.345-.216.386-.52.688-.913.904-.393.215-.844.323-1.355.323-.857 0-1.521-.3-1.993-.903-.471-.602-.706-1.433-.706-2.493 0-1.106.209-1.954.628-2.543.425-.59 1.086-.988 1.983-1.198l2.317-.53.118.638-2.18.5c-.739.164-1.283.456-1.629.875-.347.412-.537 1.024-.57 1.836.21-.4.501-.71.874-.933a2.4 2.4 0 011.286-.344zm-.108 4.516c.36 0 .681-.082.962-.245.288-.17.511-.406.668-.707a2.11 2.11 0 00.245-1.021c0-.38-.078-.713-.235-1.001a1.646 1.646 0 00-.668-.668 1.896 1.896 0 00-.972-.245 1.95 1.95 0 00-.982.245 1.72 1.72 0 00-.667.668 2.06 2.06 0 00-.236 1.001c0 .38.079.72.236 1.021a1.8 1.8 0 00.677.707c.288.163.612.245.972.245zm8.269-4.643v5.164h-.697v-4.546h-2.474l-.069 1.276c-.052 1.074-.177 1.898-.373 2.474-.196.576-.547.864-1.051.864-.137 0-.304-.026-.5-.078l.049-.6c.118.027.2.04.245.04.269 0 .472-.124.609-.373s.229-.556.275-.923c.046-.366.085-.85.118-1.453l.088-1.845h3.78zm3.758-.04c.674 0 1.191.17 1.551.51.36.335.54.832.54 1.493v3.2h-.667v-.804a1.6 1.6 0 01-.697.628c-.301.15-.661.226-1.08.226-.576 0-1.034-.138-1.375-.413a1.332 1.332 0 01-.51-1.09c0-.438.157-.791.471-1.06.321-.268.828-.402 1.522-.402h1.639v-.314c0-.445-.124-.782-.373-1.011-.248-.236-.612-.354-1.089-.354-.328 0-.642.056-.943.167-.301.105-.56.252-.776.442l-.314-.52c.262-.223.576-.393.943-.511a3.574 3.574 0 011.158-.187zm-.245 4.703c.393 0 .73-.088 1.011-.265a1.64 1.64 0 00.628-.785v-.845h-1.62c-.883 0-1.325.308-1.325.923 0 .301.115.54.344.717.229.17.549.255.962.255zm6.352.55c-.511 0-.969-.112-1.375-.334a2.435 2.435 0 01-.942-.933 2.728 2.728 0 01-.344-1.364c0-.504.115-.956.344-1.355.229-.4.543-.71.942-.933a2.811 2.811 0 011.375-.334c.445 0 .841.089 1.188.265.353.17.631.423.834.756l-.52.354a1.589 1.589 0 00-.648-.57 1.885 1.885 0 00-.854-.196c-.373 0-.71.085-1.011.255a1.77 1.77 0 00-.697.707 2.198 2.198 0 00-.246 1.05c0 .4.082.753.246 1.06.17.302.402.538.697.708.301.163.638.245 1.011.245.307 0 .592-.062.854-.186a1.59 1.59 0 00.648-.57l.52.354a2.01 2.01 0 01-.834.765 2.71 2.71 0 01-1.188.256zm6.908-4.595h-1.953v4.546h-.697v-4.546h-1.954v-.618h4.604v.618zm1.008-.618h.697v4.103l3.446-4.103h.619v5.164h-.697v-4.104l-3.436 4.104h-.629v-5.164z" fill="#000"/><defs><linearGradient id="paint0_linear" x1="14.427" y1="25.998" x2="14.427" y2="50.928" gradientUnits="userSpaceOnUse"><stop stop-color="#FF5B14"/><stop offset="1" stop-color="#FF7F47"/></linearGradient><clipPath id="clip0"><path fill="#fff" d="M0 0h48.332v53.618H0z"/></clipPath></defs></svg>