<svg width="239" height="71" fill="none" xmlns="http://www.w3.org/2000/svg"><path d="M30.938 32.693L2.742 46.783V17.707L30.938 3.615v29.078zm30.555 14.09l-28.195-14.09V3.615l28.195 14.09v29.079zM33.298 64.676l28.195-14.091v3.245L33.298 67.92v-3.244zM2.74 50.584l28.197 14.09v3.245L2.742 53.83v-3.245zm9.982-6.165l.677.293-7.587 4.698-1.618-.726 8.528-4.265zm9.992-4.99l7.358 3.672-7.358 3.675L15.36 43.1l7.356-3.672zm19.98 7.346l-7.357-3.673 6.77-3.38 7.356 3.673-6.77 3.38zm10.577 5.293l-7.945-3.971 6.77-3.384 7.944 3.97-6.769 3.385zm-9.99 4.99l-7.944-3.97 7.357-3.678 7.944 3.97-7.357 3.678zm-17.933-8.961l7.356-3.678 7.357 3.678-7.357 3.677-7.356-3.677zm6.77-13.366l7.356 3.678-6.77 3.384-7.356-3.678 6.77-3.384zM.473 54.967c.03.068.066.132.108.192.036.066.08.13.127.188.06.058.125.11.196.153.043.038 30.687 15.37 30.687 15.37.343.163.709.163 1.019.008l30.584-15.273a3.04 3.04 0 00.33-.257c.09-.12.168-.248.236-.38.026-.081.042-.165.05-.25.015-.054.033-37.739.033-37.739a2.882 2.882 0 00-.083-.412 2.81 2.81 0 00-.236-.38 1.159 1.159 0 00-.195-.152C63.288 15.996 32.644.664 32.644.664a1.148 1.148 0 00-1.02-.007L1.042 15.929a2.999 2.999 0 00-.332.258 1.134 1.134 0 00-.127.19 1.042 1.042 0 00-.107.19 1.14 1.14 0 00-.051.25C.409 16.87.391 54.555.391 54.555c.041.248.058.332.084.412H.474z" fill="#000"/><path d="M3.6 48.626l28.444-14.2 27.898 14.2-27.898 14.2L3.6 48.626z" fill="#F1F1F1"/><path d="M3.6 48.626l28.444-14.2s-13.128 12.562 0 28.4C45.175 78.665 3.6 48.626 3.6 48.626z" fill="url(#paint0_linear)"/><path d="M78.736 26.192c-1.163 0-2.213-.25-3.152-.752a5.672 5.672 0 01-2.192-2.064c-.523-.885-.784-1.877-.784-2.976s.261-2.085.784-2.96a5.635 5.635 0 012.192-2.08c.939-.501 1.99-.752 3.152-.752 1.163 0 2.208.25 3.136.752a5.635 5.635 0 012.192 2.08c.533.875.8 1.861.8 2.96s-.267 2.09-.8 2.976a5.672 5.672 0 01-2.192 2.064c-.928.501-1.973.752-3.136.752zm0-2.208c.661 0 1.259-.15 1.792-.448.533-.31.95-.736 1.248-1.28.31-.544.464-1.163.464-1.856 0-.693-.155-1.312-.464-1.856a3.163 3.163 0 00-1.248-1.264 3.506 3.506 0 00-1.792-.464 3.51 3.51 0 00-1.792.464c-.533.299-.955.72-1.264 1.264-.299.544-.448 1.163-.448 1.856 0 .693.15 1.312.448 1.856.31.544.73.97 1.264 1.28.533.299 1.13.448 1.792.448zm13.469 2.208c-1.163 0-2.214-.25-3.152-.752a5.672 5.672 0 01-2.192-2.064c-.523-.885-.784-1.877-.784-2.976s.261-2.085.784-2.96a5.635 5.635 0 012.192-2.08c.938-.501 1.99-.752 3.152-.752 1.162 0 2.208.25 3.136.752a5.635 5.635 0 012.192 2.08c.533.875.8 1.861.8 2.96s-.267 2.09-.8 2.976a5.673 5.673 0 01-2.192 2.064c-.928.501-1.974.752-3.136.752zm0-2.208c.661 0 1.258-.15 1.792-.448.533-.31.95-.736 1.248-1.28.31-.544.464-1.163.464-1.856 0-.693-.155-1.312-.464-1.856a3.163 3.163 0 00-1.248-1.264 3.507 3.507 0 00-1.792-.464c-.662 0-1.259.155-1.792.464-.534.299-.955.72-1.264 1.264-.299.544-.448 1.163-.448 1.856 0 .693.15 1.312.448 1.856.31.544.73.97 1.264 1.28.533.299 1.13.448 1.792.448zm13.469 2.208c-1.163 0-2.214-.25-3.152-.752a5.67 5.67 0 01-2.192-2.064c-.523-.885-.784-1.877-.784-2.976s.26-2.085.784-2.96a5.633 5.633 0 012.192-2.08c.938-.501 1.989-.752 3.152-.752 1.162 0 2.208.25 3.136.752a5.64 5.64 0 012.192 2.08c.533.875.8 1.861.8 2.96s-.267 2.09-.8 2.976a5.677 5.677 0 01-2.192 2.064c-.928.501-1.974.752-3.136.752zm0-2.208c.661 0 1.258-.15 1.792-.448.533-.31.949-.736 1.248-1.28.309-.544.464-1.163.464-1.856 0-.693-.155-1.312-.464-1.856a3.167 3.167 0 00-1.248-1.264 3.509 3.509 0 00-1.792-.464c-.662 0-1.259.155-1.792.464-.534.299-.955.72-1.264 1.264-.299.544-.448 1.163-.448 1.856 0 .693.149 1.312.448 1.856.309.544.73.97 1.264 1.28a3.6 3.6 0 001.792.448zm11.84-2.576l2.032-2.816h2.032l-1.984 2.816 1.984 2.8h-2.032l-2.032-2.8zm3.408 0l2.032-2.816h2.032l-1.984 2.816 1.984 2.8h-2.032l-2.032-2.8zM136.975 26l-.016-6.704-3.296 5.52h-1.152l-3.296-5.392V26h-2.432V14.8h2.144l4.192 6.96 4.128-6.96h2.144l.016 11.2h-2.432zm10.51.192c-1.141 0-2.176-.245-3.104-.736a5.703 5.703 0 01-2.176-2.064c-.523-.885-.784-1.883-.784-2.992 0-1.11.261-2.101.784-2.976a5.55 5.55 0 012.176-2.064c.928-.501 1.968-.752 3.12-.752.971 0 1.845.17 2.624.512a5.257 5.257 0 011.984 1.472l-1.664 1.536c-.757-.875-1.696-1.312-2.816-1.312-.693 0-1.312.155-1.856.464a3.24 3.24 0 00-1.28 1.264c-.299.544-.448 1.163-.448 1.856 0 .693.149 1.312.448 1.856.309.544.736.97 1.28 1.28.544.299 1.163.448 1.856.448 1.12 0 2.059-.443 2.816-1.328l1.664 1.536a5.186 5.186 0 01-1.984 1.488c-.789.341-1.669.512-2.64.512zm10.649-4.704h-1.792V26h-2.576V14.8h2.576v4.528h1.856l2.944-4.528h2.736l-3.664 5.408L163.99 26h-2.944l-2.912-4.512zm6.438 2.72l1.984-2.8-1.984-2.816h2.032l2.032 2.816-2.032 2.8h-2.032zm3.408 0l1.984-2.8-1.984-2.816h2.032l2.032 2.816-2.032 2.8h-2.032zM81.191 31.9V41h-.949v-8.268h-5.759V41h-.949v-9.1h7.657zm5.67 9.165a3.595 3.595 0 01-1.78-.442 3.319 3.319 0 01-1.249-1.248c-.303-.529-.454-1.127-.454-1.794s.151-1.265.454-1.794a3.23 3.23 0 011.249-1.235 3.595 3.595 0 011.78-.442c.66 0 1.253.147 1.781.442.53.295.94.706 1.236 1.235.303.529.454 1.127.454 1.794s-.151 1.265-.454 1.794a3.223 3.223 0 01-1.236 1.248 3.595 3.595 0 01-1.78.442zm0-.819c.486 0 .92-.108 1.3-.325.39-.225.694-.542.91-.949.217-.407.326-.871.326-1.391s-.109-.984-.326-1.391a2.257 2.257 0 00-.91-.936 2.507 2.507 0 00-1.3-.338c-.485 0-.922.113-1.313.338a2.367 2.367 0 00-.91.936 2.917 2.917 0 00-.325 1.391c0 .52.109.984.325 1.391.226.407.53.724.91.949.39.217.828.325 1.314.325zm10.996-6.084V41h-.923v-6.019h-3.276l-.09 1.69c-.07 1.421-.235 2.513-.495 3.276-.26.763-.724 1.144-1.39 1.144-.183 0-.404-.035-.664-.104l.065-.793c.156.035.264.052.325.052.355 0 .624-.165.806-.494.182-.33.303-.737.364-1.222.06-.485.113-1.127.156-1.924l.117-2.444h5.005zm8.435 0l-3.419 7.657c-.277.641-.598 1.096-.962 1.365-.364.269-.802.403-1.313.403-.329 0-.637-.052-.923-.156a2 2 0 01-.741-.468l.429-.689c.347.347.763.52 1.248.52.312 0 .576-.087.793-.26.225-.173.433-.468.624-.884l.299-.663-3.055-6.825h.962l2.574 5.811 2.574-5.811h.91zm4.108 6.903c-.676 0-1.283-.147-1.82-.442a3.22 3.22 0 01-1.248-1.235 3.604 3.604 0 01-.455-1.807c0-.667.151-1.265.455-1.794a3.22 3.22 0 011.248-1.235c.537-.295 1.144-.442 1.82-.442.589 0 1.113.117 1.573.351.468.225.836.559 1.105 1.001l-.689.468a2.116 2.116 0 00-.858-.754 2.496 2.496 0 00-1.131-.26c-.494 0-.941.113-1.339.338-.39.217-.698.529-.923.936a2.912 2.912 0 00-.325 1.391c0 .529.108.997.325 1.404.225.399.533.71.923.936.398.217.845.325 1.339.325a2.6 2.6 0 001.131-.247c.346-.165.632-.416.858-.754l.689.468c-.269.442-.637.78-1.105 1.014a3.582 3.582 0 01-1.573.338zm10.174-6.903l-3.419 7.657c-.277.641-.598 1.096-.962 1.365-.364.269-.801.403-1.313.403-.329 0-.637-.052-.923-.156a2 2 0 01-.741-.468l.429-.689c.347.347.763.52 1.248.52.312 0 .577-.087.793-.26.226-.173.434-.468.624-.884l.299-.663-3.055-6.825h.962l2.574 5.811 2.574-5.811h.91zM125.896 41l-2.171-2.86-2.184 2.86h-1.04l2.704-3.51-2.574-3.328h1.04l2.054 2.678 2.054-2.678h1.014l-2.574 3.328 2.73 3.51h-1.053zm4.791-6.89c.893 0 1.578.225 2.054.676.477.442.715 1.1.715 1.976V41h-.884v-1.066a2.106 2.106 0 01-.923.832c-.398.2-.875.299-1.43.299-.762 0-1.369-.182-1.82-.546-.45-.364-.676-.845-.676-1.443 0-.58.208-1.049.624-1.404.425-.355 1.097-.533 2.015-.533h2.171v-.416c0-.59-.164-1.036-.494-1.339-.329-.312-.81-.468-1.443-.468-.433 0-.849.074-1.248.221a3.065 3.065 0 00-1.027.585l-.416-.689a3.61 3.61 0 011.248-.676 4.745 4.745 0 011.534-.247zm-.325 6.227c.52 0 .967-.117 1.339-.351.373-.243.65-.59.832-1.04v-1.118h-2.145c-1.17 0-1.755.407-1.755 1.222 0 .399.152.715.455.949.304.225.728.338 1.274.338zm10.804-6.175V41h-.845v-2.262h-2.405L136.33 41h-1.001l1.703-2.392c-.529-.147-.936-.399-1.222-.754-.286-.355-.429-.806-.429-1.352 0-.763.26-1.343.78-1.742s1.23-.598 2.132-.598h2.873zm-4.849 2.366c0 1.014.645 1.521 1.937 1.521h2.067v-3.068h-2.002c-1.335 0-2.002.516-2.002 1.547zm13.743 4.537c-.676 0-1.283-.147-1.82-.442a3.22 3.22 0 01-1.248-1.235 3.604 3.604 0 01-.455-1.807c0-.667.151-1.265.455-1.794a3.22 3.22 0 011.248-1.235c.537-.295 1.144-.442 1.82-.442.589 0 1.113.117 1.573.351.468.225.836.559 1.105 1.001l-.689.468a2.116 2.116 0 00-.858-.754 2.496 2.496 0 00-1.131-.26c-.494 0-.941.113-1.339.338-.39.217-.698.529-.923.936a2.912 2.912 0 00-.325 1.391c0 .529.108.997.325 1.404.225.399.533.71.923.936.398.217.845.325 1.339.325a2.6 2.6 0 001.131-.247c.346-.165.632-.416.858-.754l.689.468c-.269.442-.637.78-1.105 1.014a3.582 3.582 0 01-1.573.338zm9.148-6.084h-2.587V41h-.923v-6.019h-2.587v-.819h6.097v.819zm6.447-.819V41h-.845v-2.262h-2.405L160.819 41h-1.001l1.703-2.392c-.529-.147-.936-.399-1.222-.754-.286-.355-.429-.806-.429-1.352 0-.763.26-1.343.78-1.742s1.231-.598 2.132-.598h2.873zm-4.849 2.366c0 1.014.646 1.521 1.937 1.521h2.067v-3.068h-2.002c-1.335 0-2.002.516-2.002 1.547zm13.474 1.43h-1.482V41h-.923v-3.042h-1.482L168.3 41h-1.105l2.457-3.523-2.262-3.315h1.001l2.002 3.003h1.482v-3.003h.923v3.003h1.482l2.015-3.003h1.001l-2.262 3.328 2.457 3.51h-1.105l-2.106-3.042zm7.23 0h-1.56V41h-.923v-6.838h.923v3.003h1.573l2.405-3.003h1.001l-2.691 3.315L185.124 41h-1.092l-2.522-3.042zm7.297-3.848c.892 0 1.577.225 2.054.676.476.442.715 1.1.715 1.976V41h-.884v-1.066a2.112 2.112 0 01-.923.832c-.399.2-.876.299-1.43.299-.763 0-1.37-.182-1.82-.546-.451-.364-.676-.845-.676-1.443 0-.58.208-1.049.624-1.404.424-.355 1.096-.533 2.015-.533h2.171v-.416c0-.59-.165-1.036-.494-1.339-.33-.312-.811-.468-1.443-.468-.434 0-.85.074-1.248.221a3.055 3.055 0 00-1.027.585l-.416-.689c.346-.295.762-.52 1.248-.676a4.736 4.736 0 011.534-.247zm-.325 6.227c.52 0 .966-.117 1.339-.351.372-.243.65-.59.832-1.04v-1.118h-2.145c-1.17 0-1.755.407-1.755 1.222 0 .399.151.715.455.949.303.225.728.338 1.274.338zm15.089-6.175V41h-.923v-6.019h-4.29V41h-.923v-6.838h6.136zm5.445 6.903a3.595 3.595 0 01-1.781-.442 3.313 3.313 0 01-1.248-1.248c-.303-.529-.455-1.127-.455-1.794s.152-1.265.455-1.794a3.22 3.22 0 011.248-1.235 3.595 3.595 0 011.781-.442c.659 0 1.252.147 1.781.442.529.295.94.706 1.235 1.235.303.529.455 1.127.455 1.794s-.152 1.265-.455 1.794a3.224 3.224 0 01-1.235 1.248 3.595 3.595 0 01-1.781.442zm0-.819c.485 0 .919-.108 1.3-.325.39-.225.693-.542.91-.949.217-.407.325-.871.325-1.391s-.108-.984-.325-1.391a2.26 2.26 0 00-.91-.936 2.507 2.507 0 00-1.3-.338 2.58 2.58 0 00-1.313.338 2.367 2.367 0 00-.91.936 2.912 2.912 0 00-.325 1.391c0 .52.108.984.325 1.391.225.407.529.724.91.949.39.217.828.325 1.313.325zm10.995-6.084V41h-.923v-6.019h-3.276l-.091 1.69c-.069 1.421-.234 2.513-.494 3.276-.26.763-.723 1.144-1.391 1.144-.182 0-.403-.035-.663-.104l.065-.793c.156.035.265.052.325.052.356 0 .624-.165.806-.494.182-.33.304-.737.364-1.222.061-.485.113-1.127.156-1.924l.117-2.444h5.005zm4.977-.052c.893 0 1.578.225 2.054.676.477.442.715 1.1.715 1.976V41h-.884v-1.066a2.106 2.106 0 01-.923.832c-.398.2-.875.299-1.43.299-.762 0-1.369-.182-1.82-.546-.45-.364-.676-.845-.676-1.443 0-.58.208-1.049.624-1.404.425-.355 1.097-.533 2.015-.533h2.171v-.416c0-.59-.164-1.036-.494-1.339-.329-.312-.81-.468-1.443-.468-.433 0-.849.074-1.248.221a3.065 3.065 0 00-1.027.585l-.416-.689a3.61 3.61 0 011.248-.676 4.745 4.745 0 011.534-.247zm-.325 6.227c.52 0 .967-.117 1.339-.351.373-.243.65-.59.832-1.04v-1.118h-2.145c-1.17 0-1.755.407-1.755 1.222 0 .399.152.715.455.949.304.225.728.338 1.274.338zM77.668 52.464c.927.217 1.391.776 1.391 1.677 0 .598-.221 1.057-.663 1.378-.442.32-1.1.481-1.976.481h-3.107v-6.838h3.016c.78 0 1.391.152 1.833.455.442.303.663.737.663 1.3 0 .373-.104.693-.312.962-.2.26-.481.455-.845.585zm-3.458-.26h2.054c.529 0 .932-.1 1.209-.299.286-.2.429-.49.429-.871s-.143-.667-.429-.858c-.277-.19-.68-.286-1.209-.286H74.21v2.314zm2.171 3.068c.59 0 1.031-.095 1.326-.286.295-.19.442-.49.442-.897 0-.407-.134-.706-.403-.897-.269-.2-.693-.299-1.274-.299H74.21v2.379h2.171zM94.296 46.9V56h-.922v-7.28l-3.575 6.123h-.456l-3.575-6.084V56h-.922v-9.1h.792l3.953 6.747 3.913-6.747h.792zm5.667 9.165a3.595 3.595 0 01-1.78-.442 3.317 3.317 0 01-1.249-1.248c-.303-.529-.455-1.127-.455-1.794s.152-1.265.455-1.794c.303-.529.72-.94 1.248-1.235a3.595 3.595 0 011.781-.442c.659 0 1.252.147 1.781.442.529.295.94.706 1.235 1.235.303.529.455 1.127.455 1.794s-.152 1.265-.455 1.794a3.224 3.224 0 01-1.235 1.248 3.595 3.595 0 01-1.78.442zm0-.819c.485 0 .919-.108 1.3-.325.39-.225.693-.542.91-.949.217-.407.325-.871.325-1.391s-.108-.984-.325-1.391a2.26 2.26 0 00-.91-.936 2.507 2.507 0 00-1.3-.338 2.58 2.58 0 00-1.313.338 2.367 2.367 0 00-.91.936 2.916 2.916 0 00-.325 1.391c0 .52.108.984.325 1.391.225.407.529.724.91.949.39.217.828.325 1.313.325zm8.304.819c-.676 0-1.283-.147-1.82-.442a3.22 3.22 0 01-1.248-1.235 3.604 3.604 0 01-.455-1.807c0-.667.151-1.265.455-1.794a3.22 3.22 0 011.248-1.235c.537-.295 1.144-.442 1.82-.442.589 0 1.113.117 1.573.351.468.225.836.559 1.105 1.001l-.689.468a2.116 2.116 0 00-.858-.754 2.496 2.496 0 00-1.131-.26c-.494 0-.941.113-1.339.338-.39.217-.698.529-.923.936a2.912 2.912 0 00-.325 1.391c0 .529.108.997.325 1.404.225.399.533.71.923.936.398.217.845.325 1.339.325a2.6 2.6 0 001.131-.247c.346-.165.632-.416.858-.754l.689.468c-.269.442-.637.78-1.105 1.014a3.582 3.582 0 01-1.573.338zm6.948-3.107h-1.56V56h-.923v-6.838h.923v3.003h1.573l2.405-3.003h1.001l-2.691 3.315L118.829 56h-1.092l-2.522-3.042zm9.426-.494c.927.217 1.391.776 1.391 1.677 0 .598-.221 1.057-.663 1.378-.442.32-1.101.481-1.976.481h-3.107v-6.838h3.016c.78 0 1.391.152 1.833.455.442.303.663.737.663 1.3 0 .373-.104.693-.312.962-.2.26-.481.455-.845.585zm-3.458-.26h2.054c.528 0 .931-.1 1.209-.299.286-.2.429-.49.429-.871s-.143-.667-.429-.858c-.278-.19-.681-.286-1.209-.286h-2.054v2.314zm2.171 3.068c.589 0 1.031-.095 1.326-.286.294-.19.442-.49.442-.897 0-.407-.135-.706-.403-.897-.269-.2-.694-.299-1.274-.299h-2.262v2.379h2.171zm10.821-2.405h-5.72c.052.71.325 1.287.819 1.729.494.433 1.118.65 1.872.65a3.03 3.03 0 001.17-.221c.355-.156.663-.381.923-.676l.52.598a2.92 2.92 0 01-1.144.832 3.8 3.8 0 01-1.495.286c-.702 0-1.326-.147-1.872-.442a3.291 3.291 0 01-1.261-1.248c-.303-.529-.455-1.127-.455-1.794s.143-1.265.429-1.794c.295-.529.693-.94 1.196-1.235a3.372 3.372 0 011.716-.442c.633 0 1.2.147 1.703.442a3.12 3.12 0 011.183 1.235c.286.52.429 1.118.429 1.794l-.013.286zm-3.302-2.964c-.659 0-1.213.212-1.664.637-.442.416-.693.962-.754 1.638h4.849c-.061-.676-.316-1.222-.767-1.638-.442-.425-.997-.637-1.664-.637zm8.76-.741h.923v5.434l4.563-5.434h.819V56h-.923v-5.434L140.465 56h-.832v-6.838zm15.174 6.903a3.595 3.595 0 01-1.781-.442 3.313 3.313 0 01-1.248-1.248c-.303-.529-.455-1.127-.455-1.794s.152-1.265.455-1.794a3.22 3.22 0 011.248-1.235 3.595 3.595 0 011.781-.442c.659 0 1.252.147 1.781.442.529.295.94.706 1.235 1.235.303.529.455 1.127.455 1.794s-.152 1.265-.455 1.794a3.224 3.224 0 01-1.235 1.248 3.595 3.595 0 01-1.781.442zm0-.819c.485 0 .919-.108 1.3-.325.39-.225.693-.542.91-.949.217-.407.325-.871.325-1.391s-.108-.984-.325-1.391a2.26 2.26 0 00-.91-.936 2.507 2.507 0 00-1.3-.338 2.58 2.58 0 00-1.313.338 2.367 2.367 0 00-.91.936 2.912 2.912 0 00-.325 1.391c0 .52.108.984.325 1.391.225.407.529.724.91.949.39.217.828.325 1.313.325zm8.759-5.915c.632 0 1.196.143 1.69.429a2.91 2.91 0 011.17 1.183c.277.503.416 1.079.416 1.729 0 .667-.148 1.261-.442 1.781a3.03 3.03 0 01-1.209 1.196c-.52.286-1.118.429-1.794.429-1.136 0-2.015-.399-2.639-1.196-.624-.797-.936-1.898-.936-3.302 0-1.465.277-2.587.831-3.367.564-.78 1.439-1.309 2.627-1.586l3.068-.702.156.845-2.886.663c-.98.217-1.699.602-2.158 1.157-.46.546-.711 1.356-.754 2.431.277-.529.663-.94 1.157-1.235.494-.303 1.061-.455 1.703-.455zm-.143 5.98a2.49 2.49 0 001.274-.325c.381-.225.676-.537.884-.936.216-.399.325-.85.325-1.352 0-.503-.104-.945-.312-1.326a2.173 2.173 0 00-.884-.884 2.515 2.515 0 00-1.287-.325c-.486 0-.919.108-1.3.325a2.274 2.274 0 00-.884.884c-.208.381-.312.823-.312 1.326 0 .503.104.953.312 1.352.216.399.515.71.897.936.381.217.81.325 1.287.325zm10.949-6.149V56h-.923v-6.019h-3.276l-.091 1.69c-.07 1.421-.234 2.513-.494 3.276-.26.763-.724 1.144-1.391 1.144-.182 0-.403-.035-.663-.104l.065-.793c.156.035.264.052.325.052.355 0 .624-.165.806-.494.182-.33.303-.737.364-1.222.06-.485.112-1.127.156-1.924l.117-2.444h5.005zm4.977-.052c.892 0 1.577.225 2.054.676.476.442.715 1.1.715 1.976V56h-.884v-1.066a2.112 2.112 0 01-.923.832c-.399.2-.876.299-1.43.299-.763 0-1.37-.182-1.82-.546-.451-.364-.676-.845-.676-1.443 0-.58.208-1.049.624-1.404.424-.355 1.096-.533 2.015-.533h2.171v-.416c0-.59-.165-1.036-.494-1.339-.33-.312-.811-.468-1.443-.468-.434 0-.85.074-1.248.221a3.055 3.055 0 00-1.027.585l-.416-.689c.346-.295.762-.52 1.248-.676a4.736 4.736 0 011.534-.247zm-.325 6.227c.52 0 .966-.117 1.339-.351.372-.243.65-.59.832-1.04v-1.118h-2.145c-1.17 0-1.755.407-1.755 1.222 0 .399.151.715.455.949.303.225.728.338 1.274.338zm8.411.728c-.676 0-1.283-.147-1.82-.442a3.22 3.22 0 01-1.248-1.235 3.604 3.604 0 01-.455-1.807c0-.667.151-1.265.455-1.794a3.22 3.22 0 011.248-1.235c.537-.295 1.144-.442 1.82-.442.589 0 1.113.117 1.573.351.468.225.836.559 1.105 1.001l-.689.468a2.116 2.116 0 00-.858-.754 2.496 2.496 0 00-1.131-.26c-.494 0-.941.113-1.339.338-.39.217-.698.529-.923.936a2.912 2.912 0 00-.325 1.391c0 .529.108.997.325 1.404.225.399.533.71.923.936.398.217.845.325 1.339.325a2.6 2.6 0 001.131-.247c.346-.165.632-.416.858-.754l.689.468c-.269.442-.637.78-1.105 1.014a3.582 3.582 0 01-1.573.338zm9.148-6.084h-2.587V56h-.923v-6.019h-2.587v-.819h6.097v.819zm1.334-.819h.923v5.434l4.563-5.434h.819V56h-.923v-5.434L198.749 56h-.832v-6.838z" fill="#000"/><defs><linearGradient id="paint0_linear" x1="19.104" y1="34.426" x2="19.104" y2="67.438" gradientUnits="userSpaceOnUse"><stop stop-color="#FF5B14"/><stop offset="1" stop-color="#FF7F47"/></linearGradient></defs></svg>