<svg width="138" height="43" fill="none" xmlns="http://www.w3.org/2000/svg"><g clip-path="url(#clip0)"><path d="M18.737 19.8L1.661 28.334v-17.61L18.737 2.19V19.8zm18.505 8.534L20.166 19.8V2.19l17.076 8.534v17.61zM20.166 39.17l17.076-8.534V32.6l-17.076 8.534V39.17zM1.66 30.636l17.077 8.534v1.965L1.661 32.6v-1.965zm6.045-3.734l.41.177-4.594 2.845-.98-.44 5.164-2.582zm6.052-3.022l4.456 2.224-4.456 2.225-4.455-2.225 4.455-2.224zm12.1 4.449l-4.455-2.224 4.1-2.047 4.455 2.224-4.1 2.047zm6.406 3.205l-4.811-2.404 4.1-2.05 4.81 2.405-4.099 2.05zm-6.05 3.023l-4.811-2.405 4.456-2.228 4.81 2.405-4.455 2.228zm-10.861-5.428l4.455-2.227 4.456 2.227-4.456 2.227-4.455-2.227zm4.1-8.094l4.455 2.227-4.1 2.05-4.455-2.228 4.1-2.05zM.287 33.29c.018.041.04.08.066.116a.67.67 0 00.077.114.682.682 0 00.118.093c.026.023 18.585 9.309 18.585 9.309a.7.7 0 00.617.005l18.523-9.25c.07-.047.137-.1.2-.156.054-.073.101-.15.143-.23a.686.686 0 00.03-.151c.009-.033.02-22.856.02-22.856a1.756 1.756 0 00-.05-.25 1.707 1.707 0 00-.143-.23.701.701 0 00-.118-.092C38.329 9.688 19.77.402 19.77.402a.695.695 0 00-.617-.004L.63 9.648c-.07.047-.137.099-.2.156a.685.685 0 00-.077.114.678.678 0 00-.066.116.691.691 0 00-.03.151c-.01.032-.02 22.856-.02 22.856.025.15.035.2.05.25z" fill="#fff"/><path d="M2.18 29.45l17.227-8.6 16.896 8.6-16.896 8.6-17.227-8.6z" fill="#F1F1F1"/><path d="M2.18 29.45l17.227-8.6s-7.951 7.607 0 17.2c7.951 9.592-17.227-8.6-17.227-8.6z" fill="url(#paint0_linear)"/></g><path d="M47.685 15.863c-.704 0-1.34-.152-1.909-.455a3.436 3.436 0 01-1.327-1.25 3.478 3.478 0 01-.475-1.803c0-.665.158-1.263.475-1.792a3.413 3.413 0 011.327-1.26 3.988 3.988 0 011.91-.455c.703 0 1.336.151 1.898.455a3.413 3.413 0 011.813 3.052c0 .666-.162 1.267-.485 1.803a3.43 3.43 0 01-1.328 1.25c-.562.303-1.195.455-1.899.455zm0-1.337c.4 0 .762-.09 1.085-.271.323-.188.575-.446.756-.776.188-.329.281-.704.281-1.123 0-.42-.093-.795-.28-1.125a1.916 1.916 0 00-.757-.765 2.124 2.124 0 00-1.085-.281c-.4 0-.762.094-1.085.28a1.999 1.999 0 00-.766.766c-.18.33-.27.705-.27 1.124 0 .42.09.795.27 1.124.188.33.443.588.766.776.323.18.685.271 1.085.271zm8.157 1.337c-.704 0-1.34-.152-1.909-.455a3.435 3.435 0 01-1.327-1.25 3.479 3.479 0 01-.475-1.803c0-.665.158-1.263.475-1.792a3.412 3.412 0 011.327-1.26 3.987 3.987 0 011.91-.455c.703 0 1.337.151 1.899.455a3.413 3.413 0 011.812 3.052c0 .666-.162 1.267-.485 1.803-.323.53-.765.946-1.327 1.25-.562.303-1.195.455-1.9.455zm0-1.337c.4 0 .763-.09 1.086-.271.323-.188.575-.446.756-.776.187-.329.28-.704.28-1.123 0-.42-.093-.795-.28-1.125a1.916 1.916 0 00-.756-.765 2.124 2.124 0 00-1.086-.281c-.4 0-.762.094-1.085.28a1.99 1.99 0 00-.765.766 2.3 2.3 0 00-.272 1.124c0 .42.09.795.272 1.124.187.33.442.588.765.776.323.18.685.271 1.085.271zM64 15.863a3.998 3.998 0 01-1.91-.455 3.436 3.436 0 01-1.327-1.25 3.478 3.478 0 01-.475-1.803c0-.665.158-1.263.475-1.792a3.413 3.413 0 011.328-1.26 3.988 3.988 0 011.908-.455c.705 0 1.338.151 1.9.455a3.412 3.412 0 011.812 3.052c0 .666-.162 1.267-.485 1.803-.323.53-.765.946-1.327 1.25-.562.303-1.195.455-1.9.455zm0-1.337c.4 0 .762-.09 1.085-.271.323-.188.575-.446.756-.776.187-.329.28-.704.28-1.123 0-.42-.093-.795-.28-1.125a1.916 1.916 0 00-.756-.765A2.124 2.124 0 0064 10.185c-.401 0-.763.094-1.086.28a1.99 1.99 0 00-.765.766 2.3 2.3 0 00-.272 1.124c0 .42.09.795.272 1.124.187.33.442.588.765.776.323.18.685.271 1.085.271zm7.17-1.56l1.23-1.705h1.231l-1.201 1.705 1.201 1.696h-1.23l-1.23-1.696zm2.064 0l1.23-1.705h1.231l-1.201 1.705 1.201 1.696h-1.23l-1.23-1.696zm9.723 2.781l-.01-4.06-1.996 3.343h-.698l-1.996-3.266v3.983h-1.473V8.964h1.298l2.54 4.215 2.5-4.215h1.298l.01 6.783h-1.474zm6.365.116a3.96 3.96 0 01-1.88-.445 3.454 3.454 0 01-1.318-1.25 3.497 3.497 0 01-.475-1.813c0-.671.159-1.272.475-1.802a3.36 3.36 0 011.318-1.25 3.91 3.91 0 011.89-.455c.587 0 1.117.103 1.589.31a3.18 3.18 0 011.201.891l-1.007.93c-.46-.53-1.028-.794-1.706-.794-.42 0-.794.094-1.124.28-.33.182-.588.437-.775.766a2.3 2.3 0 00-.272 1.124c0 .42.09.795.272 1.124.187.33.445.588.775.776.33.18.704.271 1.124.271.678 0 1.247-.268 1.706-.804l1.007.93a3.141 3.141 0 01-1.201.901 3.987 3.987 0 01-1.6.31zm6.45-2.849h-1.086v2.733h-1.56V8.964h1.56v2.742h1.124l1.783-2.742h1.657l-2.219 3.275 2.287 3.508h-1.783l-1.763-2.733zm3.898 1.648l1.202-1.696-1.202-1.705h1.231l1.231 1.705-1.231 1.696h-1.23zm2.064 0l1.202-1.696-1.202-1.705h1.231l1.231 1.705-1.231 1.696h-1.231zM49.172 19.32v5.511h-.575v-5.007H45.11v5.007h-.574v-5.51h4.637zm3.434 5.55c-.399 0-.758-.088-1.078-.267a2.01 2.01 0 01-.756-.756 2.144 2.144 0 01-.276-1.086c0-.404.092-.766.276-1.087.184-.32.436-.57.756-.748.32-.178.68-.267 1.078-.267.4 0 .759.089 1.079.267.32.179.57.428.748.748.184.32.276.683.276 1.087 0 .404-.092.766-.276 1.086-.179.32-.428.572-.748.756-.32.179-.68.268-1.079.268zm0-.495c.294 0 .557-.066.788-.197a1.42 1.42 0 00.55-.575c.132-.246.198-.527.198-.842 0-.315-.066-.596-.197-.843a1.368 1.368 0 00-.551-.566 1.518 1.518 0 00-.788-.205 1.56 1.56 0 00-.795.205c-.23.13-.415.32-.551.566a1.767 1.767 0 00-.197.843c0 .315.066.596.197.842.136.247.32.439.551.575.236.131.501.197.795.197zm6.66-3.685v4.141h-.56v-3.645h-1.984l-.055 1.024c-.042.86-.141 1.522-.299 1.984-.157.462-.438.693-.842.693a1.61 1.61 0 01-.402-.063l.04-.48c.094.02.16.03.197.03a.528.528 0 00.488-.298c.11-.2.183-.446.22-.74.037-.294.068-.683.094-1.166l.071-1.48h3.032zm5.108 0l-2.07 4.638c-.169.388-.363.663-.583.826a1.3 1.3 0 01-.795.244c-.2 0-.386-.031-.56-.094a1.209 1.209 0 01-.448-.284l.26-.417c.21.21.462.315.755.315a.74.74 0 00.48-.157c.137-.105.263-.284.379-.536l.18-.401-1.85-4.134h.583l1.559 3.52 1.559-3.52h.551zm2.488 4.18c-.41 0-.777-.088-1.102-.267a1.953 1.953 0 01-.756-.748 2.188 2.188 0 01-.276-1.094c0-.404.092-.766.276-1.087.183-.32.435-.57.755-.748a2.255 2.255 0 011.103-.267c.357 0 .674.07.952.212.284.137.507.339.67.607l-.418.283a1.277 1.277 0 00-.52-.457 1.511 1.511 0 00-.684-.157c-.3 0-.57.068-.811.205-.236.13-.423.32-.56.566a1.767 1.767 0 00-.196.843c0 .32.066.604.197.85.136.242.323.43.559.567.241.131.511.197.81.197.247 0 .476-.05.686-.15.21-.1.383-.252.52-.456l.417.283a1.609 1.609 0 01-.67.614 2.167 2.167 0 01-.952.205zm6.162-4.18l-2.07 4.638c-.169.388-.363.663-.583.826a1.3 1.3 0 01-.796.244c-.2 0-.385-.031-.559-.094a1.209 1.209 0 01-.448-.284l.26-.417c.21.21.461.315.755.315a.74.74 0 00.48-.157c.137-.105.263-.284.378-.536l.181-.401-1.85-4.134h.583l1.559 3.52 1.559-3.52h.55zm3.223 4.141L74.932 23.1l-1.323 1.732h-.63l1.638-2.125-1.559-2.016h.63l1.244 1.622 1.244-1.622h.614l-1.559 2.016 1.653 2.125h-.637zm2.902-4.172c.54 0 .955.136 1.244.41.288.267.433.666.433 1.196v2.566h-.536v-.645a1.278 1.278 0 01-.559.504c-.241.12-.53.18-.866.18-.462 0-.829-.11-1.102-.33a1.068 1.068 0 01-.41-.874c0-.351.127-.635.379-.85.257-.215.664-.323 1.22-.323h1.315v-.252c0-.357-.1-.627-.3-.81-.199-.19-.49-.284-.873-.284-.263 0-.515.045-.756.134a1.853 1.853 0 00-.622.354l-.252-.417c.21-.179.462-.315.756-.41.294-.1.603-.15.929-.15zm-.197 3.771c.315 0 .585-.07.81-.213.227-.146.395-.357.505-.63v-.677h-1.3c-.708 0-1.062.247-1.062.74 0 .242.092.434.275.575.184.137.441.205.772.205zm6.543-3.74v4.141h-.512v-1.37h-1.457l-.96 1.37h-.606l1.031-1.448c-.32-.09-.567-.242-.74-.457-.173-.215-.26-.488-.26-.819 0-.462.157-.813.472-1.055.315-.241.746-.362 1.292-.362h1.74zm-2.937 1.433c0 .614.391.921 1.173.921h1.252v-1.858H83.77c-.808 0-1.212.313-1.212.937zm8.323 2.747c-.41 0-.777-.088-1.102-.267a1.952 1.952 0 01-.756-.748 2.188 2.188 0 01-.275-1.094c0-.404.091-.766.275-1.087.184-.32.436-.57.756-.748a2.255 2.255 0 011.102-.267c.357 0 .675.07.953.212.283.137.506.339.67.607l-.418.283a1.277 1.277 0 00-.52-.457 1.51 1.51 0 00-.685-.157c-.299 0-.57.068-.81.205-.237.13-.423.32-.56.566a1.767 1.767 0 00-.197.843c0 .32.066.604.197.85.137.242.323.43.56.567.24.131.511.197.81.197.247 0 .475-.05.685-.15.21-.1.383-.252.52-.456l.417.283a1.608 1.608 0 01-.67.614 2.167 2.167 0 01-.952.205zm5.541-3.684h-1.567v3.645h-.559v-3.645h-1.567v-.496h3.693v.496zm3.904-.496v4.141h-.512v-1.37h-1.456l-.96 1.37h-.607l1.032-1.448c-.32-.09-.567-.242-.74-.457-.174-.215-.26-.488-.26-.819 0-.462.157-.813.472-1.055.315-.241.745-.362 1.291-.362h1.74zm-2.936 1.433c0 .614.39.921 1.173.921h1.251v-1.858h-1.212c-.808 0-1.213.313-1.213.937zm8.16.867h-.898v1.841h-.559V22.99h-.897l-1.268 1.842h-.669l1.488-2.133-1.37-2.008h.606l1.213 1.819h.897v-1.82h.559v1.819h.898l1.22-1.819h.606l-1.37 2.016 1.488 2.125h-.669l-1.275-1.842zm4.379 0h-.945v1.841h-.559v-4.14h.559v1.818h.952l1.457-1.819h.606l-1.63 2.008 1.748 2.133h-.661l-1.527-1.842zm4.419-2.331c.54 0 .955.136 1.244.41.288.267.433.666.433 1.196v2.566h-.536v-.645a1.276 1.276 0 01-.559.504c-.241.12-.53.18-.866.18-.462 0-.829-.11-1.102-.33a1.067 1.067 0 01-.409-.874c0-.351.126-.635.378-.85.257-.215.663-.323 1.22-.323h1.315v-.252c0-.357-.1-.627-.299-.81-.2-.19-.491-.284-.874-.284a2.16 2.16 0 00-.756.134 1.845 1.845 0 00-.622.354l-.252-.417c.21-.179.462-.315.756-.41.294-.1.603-.15.929-.15zm-.197 3.771c.315 0 .585-.07.811-.213.226-.146.393-.357.504-.63v-.677h-1.299c-.709 0-1.063.247-1.063.74a.69.69 0 00.275.575c.184.137.441.205.772.205zm9.139-3.74v4.141h-.559v-3.645h-2.599v3.645h-.559v-4.14h3.717zm3.297 4.18a2.18 2.18 0 01-1.079-.267 2.003 2.003 0 01-.755-.756 2.141 2.141 0 01-.276-1.086c0-.404.092-.766.276-1.087.183-.32.435-.57.755-.748.321-.178.68-.267 1.079-.267.399 0 .759.089 1.079.267.32.179.569.428.748.748.183.32.275.683.275 1.087 0 .404-.092.766-.275 1.086-.179.32-.428.572-.748.756-.32.179-.68.268-1.079.268zm0-.495c.294 0 .556-.066.787-.197a1.42 1.42 0 00.552-.575c.131-.246.196-.527.196-.842 0-.315-.065-.596-.196-.843a1.369 1.369 0 00-.552-.566 1.517 1.517 0 00-.787-.205c-.294 0-.559.068-.795.205a1.43 1.43 0 00-.551.566 1.77 1.77 0 00-.197.843c0 .315.066.596.197.842.136.247.32.439.551.575.236.131.501.197.795.197zm6.659-3.685v4.141h-.559v-3.645h-1.984l-.055 1.024c-.042.86-.142 1.522-.299 1.984-.157.462-.438.693-.842.693-.111 0-.245-.021-.402-.063l.039-.48c.095.02.16.03.197.03a.527.527 0 00.488-.298c.111-.2.184-.446.221-.74.037-.294.068-.683.094-1.166l.071-1.48h3.031zm3.015-.031c.54 0 .955.136 1.243.41.289.267.434.666.434 1.196v2.566h-.536v-.645a1.276 1.276 0 01-.559.504c-.241.12-.53.18-.866.18-.462 0-.829-.11-1.102-.33a1.068 1.068 0 01-.41-.874c0-.351.126-.635.378-.85.258-.215.664-.323 1.221-.323h1.315v-.252c0-.357-.1-.627-.3-.81-.199-.19-.49-.284-.874-.284-.262 0-.514.045-.755.134a1.845 1.845 0 00-.622.354l-.252-.417a2.19 2.19 0 01.755-.41c.294-.1.604-.15.93-.15zm-.197 3.771c.315 0 .585-.07.811-.213a1.32 1.32 0 00.504-.63v-.677h-1.3c-.708 0-1.062.247-1.062.74 0 .242.091.434.275.575.184.137.441.205.772.205zm-89.026 7.344c.562.132.843.47.843 1.016 0 .362-.134.64-.402.835-.267.194-.666.291-1.196.291H44.4v-4.141h1.826c.473 0 .843.092 1.11.275.268.184.402.446.402.788 0 .225-.063.42-.189.582-.12.158-.291.276-.512.354zm-2.094-.157h1.244c.32 0 .564-.06.732-.181a.603.603 0 00.26-.527c0-.232-.087-.405-.26-.52-.168-.116-.412-.173-.732-.173h-1.244v1.401zm1.315 1.858c.357 0 .624-.058.803-.173.178-.115.268-.297.268-.543 0-.247-.082-.428-.244-.544-.163-.12-.42-.18-.772-.18h-1.37v1.44h1.315zm10.851-5.07v5.511h-.56v-4.409l-2.165 3.708h-.276l-2.165-3.684v4.385h-.559v-5.511h.48l2.394 4.086 2.37-4.086h.48zm3.431 5.55c-.399 0-.758-.089-1.079-.267a2.009 2.009 0 01-.755-.756 2.144 2.144 0 01-.276-1.087c0-.404.092-.766.276-1.086.183-.32.435-.57.755-.748.32-.178.68-.268 1.08-.268.398 0 .758.09 1.078.268.32.178.57.428.748.748.183.32.275.682.275 1.086s-.092.767-.275 1.087c-.179.32-.428.572-.748.756-.32.178-.68.267-1.079.267zm0-.496c.294 0 .556-.065.787-.196.237-.137.42-.328.551-.575a1.76 1.76 0 00.197-.843c0-.314-.065-.595-.197-.842a1.367 1.367 0 00-.55-.567 1.518 1.518 0 00-.788-.205c-.294 0-.559.069-.795.205-.231.131-.415.32-.551.567a1.766 1.766 0 00-.197.842c0 .315.066.596.197.843a1.5 1.5 0 00.55.575c.237.13.502.196.796.196zm5.029.496c-.41 0-.777-.089-1.102-.267a1.953 1.953 0 01-.756-.748 2.188 2.188 0 01-.276-1.095c0-.404.092-.766.276-1.086.184-.32.436-.57.756-.748a2.255 2.255 0 011.102-.268c.357 0 .675.071.953.213.283.136.506.338.669.606l-.417.284a1.277 1.277 0 00-.52-.457 1.511 1.511 0 00-.685-.158c-.3 0-.57.069-.81.205-.237.131-.424.32-.56.567a1.766 1.766 0 00-.197.842c0 .32.066.604.197.85.136.242.323.431.56.568.24.13.51.196.81.196.247 0 .475-.05.685-.15.21-.099.383-.251.52-.456l.417.284a1.609 1.609 0 01-.67.614 2.168 2.168 0 01-.952.204zm4.208-1.881h-.945v1.842h-.559v-4.141h.56v1.818h.952l1.457-1.818h.606l-1.63 2.007 1.748 2.134h-.662l-1.527-1.842zm5.709-.3c.561.132.842.47.842 1.016 0 .362-.134.64-.401.835-.268.194-.667.291-1.197.291h-1.882v-4.141h1.827c.472 0 .842.092 1.11.275.267.184.401.446.401.788 0 .225-.063.42-.189.582-.12.158-.29.276-.511.354zm-2.095-.157h1.244c.32 0 .565-.06.733-.181a.603.603 0 00.26-.527c0-.232-.087-.405-.26-.52-.168-.116-.412-.173-.733-.173h-1.244v1.401zm1.315 1.858c.357 0 .625-.058.803-.173.179-.115.268-.297.268-.543 0-.247-.081-.428-.244-.544-.163-.12-.42-.18-.772-.18h-1.37v1.44h1.315zm6.553-1.456h-3.463c.031.43.196.779.496 1.047.299.262.677.393 1.133.393.258 0 .494-.044.709-.133a1.59 1.59 0 00.559-.41l.315.362c-.184.22-.415.389-.693.504a2.3 2.3 0 01-.905.173c-.425 0-.803-.089-1.134-.267a1.993 1.993 0 01-.764-.756 2.144 2.144 0 01-.275-1.087c0-.404.086-.766.26-1.086.178-.32.42-.57.724-.748.31-.178.656-.268 1.039-.268.383 0 .727.09 1.031.268.305.178.544.428.717.748.173.315.26.677.26 1.086l-.008.174zm-1.999-1.795c-.399 0-.735.128-1.008.385-.267.252-.42.583-.456.992h2.936c-.036-.41-.191-.74-.464-.992-.268-.257-.604-.386-1.008-.386zm5.306-.449h.559v3.29l2.763-3.29h.496v4.141h-.559v-3.291l-2.755 3.291h-.504v-4.141zm9.189 4.18c-.399 0-.758-.089-1.078-.267a2.01 2.01 0 01-.756-.756 2.144 2.144 0 01-.276-1.087c0-.404.092-.766.276-1.086.184-.32.436-.57.756-.748.32-.178.68-.268 1.078-.268.4 0 .759.09 1.079.268.32.178.57.428.748.748.184.32.275.682.275 1.086s-.091.767-.275 1.087c-.179.32-.428.572-.748.756-.32.178-.68.267-1.079.267zm0-.496c.294 0 .557-.065.788-.196.236-.137.42-.328.55-.575a1.76 1.76 0 00.198-.843 1.77 1.77 0 00-.197-.842 1.367 1.367 0 00-.551-.567 1.518 1.518 0 00-.788-.205 1.56 1.56 0 00-.795.205c-.23.131-.415.32-.551.567a1.765 1.765 0 00-.197.842c0 .315.066.596.197.843.136.246.32.438.551.575.236.13.501.196.795.196zm5.304-3.582c.384 0 .725.087 1.024.26.305.168.541.407.709.716.168.305.252.654.252 1.047 0 .405-.089.764-.268 1.08a1.84 1.84 0 01-.732.724 2.22 2.22 0 01-1.087.26c-.687 0-1.22-.242-1.598-.725-.378-.483-.567-1.15-.567-2 0-.887.168-1.567.504-2.039.341-.472.871-.793 1.59-.96l1.859-.426.094.512-1.748.402c-.593.13-1.028.364-1.307.7-.278.331-.43.822-.456 1.473.168-.32.401-.57.7-.748.3-.184.643-.276 1.032-.276zm-.086 3.622c.289 0 .546-.066.772-.197.23-.136.409-.325.535-.567a1.69 1.69 0 00.197-.819 1.65 1.65 0 00-.189-.803 1.315 1.315 0 00-.535-.535 1.523 1.523 0 00-.78-.197c-.294 0-.556.066-.787.197a1.381 1.381 0 00-.535.535 1.65 1.65 0 00-.19.803c0 .305.063.578.19.82.13.24.312.43.543.566.23.131.49.197.78.197zm6.631-3.724v4.141h-.559v-3.645h-1.984l-.055 1.023c-.042.861-.141 1.522-.299 1.984-.157.462-.438.693-.842.693a1.56 1.56 0 01-.402-.063l.039-.48c.095.02.161.031.197.031.216 0 .378-.1.488-.299.111-.2.184-.446.221-.74.037-.294.068-.682.094-1.165l.071-1.48h3.031zm3.015-.032c.54 0 .955.137 1.244.41.288.267.433.666.433 1.196v2.567h-.536v-.646a1.276 1.276 0 01-.559.504c-.241.121-.53.181-.866.181-.462 0-.829-.11-1.102-.33a1.067 1.067 0 01-.409-.874c0-.352.125-.635.377-.85.258-.216.664-.323 1.221-.323h1.315v-.252c0-.357-.1-.628-.3-.811-.199-.19-.49-.284-.874-.284-.262 0-.514.045-.755.134a1.845 1.845 0 00-.622.355l-.252-.418c.21-.178.462-.315.756-.41.293-.099.603-.149.929-.149zm-.197 3.771c.315 0 .585-.07.811-.212.225-.147.393-.357.504-.63v-.677h-1.299c-.709 0-1.063.247-1.063.74 0 .242.091.433.275.575.184.136.441.204.772.204zm5.094.441c-.41 0-.777-.089-1.102-.267a1.943 1.943 0 01-.756-.748 2.185 2.185 0 01-.276-1.095c0-.404.092-.766.276-1.086.183-.32.435-.57.756-.748a2.251 2.251 0 011.102-.268c.357 0 .674.071.952.213.284.136.507.338.67.606l-.418.284a1.272 1.272 0 00-.519-.457 1.51 1.51 0 00-.685-.158c-.299 0-.57.069-.811.205-.236.131-.423.32-.559.567a1.768 1.768 0 00-.197.842c0 .32.066.604.197.85.136.242.323.431.559.568.241.13.512.196.811.196.247 0 .475-.05.685-.15.21-.099.383-.251.519-.456l.418.284a1.61 1.61 0 01-.67.614 2.165 2.165 0 01-.952.204zm5.54-3.685h-1.566v3.646h-.559v-3.645h-1.567v-.496h3.692v.496zm.809-.495h.559v3.29l2.763-3.29h.496v4.141h-.559v-3.291l-2.756 3.291h-.503v-4.141z" fill="#fff"/><defs><linearGradient id="paint0_linear" x1="11.57" y1="20.85" x2="11.57" y2="40.843" gradientUnits="userSpaceOnUse"><stop stop-color="#FF5B14"/><stop offset="1" stop-color="#FF7F47"/></linearGradient><clipPath id="clip0"><path fill="#fff" d="M0 0h38.761v43H0z"/></clipPath></defs></svg>