<svg width="230" height="71" fill="none" xmlns="http://www.w3.org/2000/svg"><g clip-path="url(#clip0)"><path d="M29.773 32.693L2.639 46.782V17.706L29.773 3.615v29.078zm29.405 14.09l-27.134-14.09V3.615l27.134 14.09v29.078zM32.044 64.675l27.134-14.091v3.245L32.044 67.92v-3.244zM2.638 50.584l27.135 14.09v3.245L2.639 53.83l-.001-3.245zm9.605-6.165l.652.293-7.3 4.697-1.558-.725 8.207-4.265zm9.617-4.99l7.08 3.672-7.08 3.675-7.08-3.675 7.08-3.672zm19.227 7.346l-7.08-3.673 6.515-3.38 7.08 3.673-6.515 3.38zm10.179 5.293l-7.646-3.971 6.515-3.384 7.645 3.97-6.514 3.385zm-9.614 4.99l-7.645-3.97 7.08-3.679 7.645 3.971-7.08 3.678zm-17.258-8.961l7.08-3.678 7.08 3.678-7.08 3.677-7.08-3.677zm6.515-13.366l7.08 3.678-6.516 3.384-7.08-3.678 6.516-3.384zM.456 54.967c.029.068.064.131.104.192.034.066.076.13.123.188.057.057.12.11.188.153.04.038 29.531 15.37 29.531 15.37.33.163.682.162.98.008l29.433-15.273a2.91 2.91 0 00.318-.257c.086-.121.161-.249.227-.38.025-.082.04-.165.048-.25.014-.054.032-37.739.032-37.739a2.975 2.975 0 00-.08-.412 2.817 2.817 0 00-.227-.38 1.122 1.122 0 00-.188-.152c-.04-.04-29.53-15.371-29.53-15.371a1.068 1.068 0 00-.981-.007L1.002 15.929a2.916 2.916 0 00-.32.258 1.133 1.133 0 00-.122.189 1.13 1.13 0 00-.103.19 1.202 1.202 0 00-.049.25C.393 16.87.376 54.555.376 54.555c.04.248.056.331.08.412z" fill="#fff"/><path d="M3.464 48.626l27.374-14.2 26.847 14.2-26.847 14.2-27.374-14.2z" fill="#F1F1F1"/><path d="M3.464 48.626l27.374-14.2s-12.635 12.561 0 28.4c12.634 15.838-27.374-14.2-27.374-14.2z" fill="url(#paint0_linear)"/></g><path d="M76.025 26.192c-1.163 0-2.214-.25-3.152-.752a5.672 5.672 0 01-2.192-2.064c-.523-.885-.784-1.877-.784-2.976s.261-2.085.784-2.96a5.635 5.635 0 012.192-2.08c.938-.501 1.989-.752 3.152-.752 1.162 0 2.208.25 3.136.752a5.635 5.635 0 012.192 2.08c.533.875.8 1.861.8 2.96s-.267 2.09-.8 2.976a5.672 5.672 0 01-2.192 2.064c-.928.501-1.974.752-3.136.752zm0-2.208c.661 0 1.258-.15 1.792-.448.533-.31.949-.736 1.248-1.28.309-.544.464-1.163.464-1.856 0-.693-.155-1.312-.464-1.856a3.163 3.163 0 00-1.248-1.264 3.506 3.506 0 00-1.792-.464c-.662 0-1.259.155-1.792.464-.534.299-.955.72-1.264 1.264-.299.544-.448 1.163-.448 1.856 0 .693.149 1.312.448 1.856.309.544.73.97 1.264 1.28.533.299 1.13.448 1.792.448zm13.468 2.208c-1.162 0-2.213-.25-3.152-.752a5.673 5.673 0 01-2.192-2.064c-.522-.885-.784-1.877-.784-2.976s.262-2.085.784-2.96a5.635 5.635 0 012.192-2.08c.94-.501 1.99-.752 3.152-.752 1.163 0 2.208.25 3.136.752a5.635 5.635 0 012.192 2.08c.534.875.8 1.861.8 2.96s-.266 2.09-.8 2.976a5.672 5.672 0 01-2.192 2.064c-.928.501-1.973.752-3.136.752zm0-2.208c.662 0 1.26-.15 1.792-.448.534-.31.95-.736 1.248-1.28.31-.544.464-1.163.464-1.856 0-.693-.154-1.312-.464-1.856a3.162 3.162 0 00-1.248-1.264 3.506 3.506 0 00-1.792-.464c-.66 0-1.258.155-1.792.464a3.28 3.28 0 00-1.264 1.264c-.298.544-.448 1.163-.448 1.856 0 .693.15 1.312.448 1.856a3.4 3.4 0 001.264 1.28 3.603 3.603 0 001.792.448zm13.469 2.208c-1.162 0-2.213-.25-3.152-.752a5.672 5.672 0 01-2.192-2.064c-.522-.885-.784-1.877-.784-2.976s.261-2.085.784-2.96a5.635 5.635 0 012.192-2.08c.939-.501 1.99-.752 3.152-.752 1.163 0 2.208.25 3.136.752a5.633 5.633 0 012.192 2.08c.534.875.8 1.861.8 2.96s-.266 2.09-.8 2.976a5.67 5.67 0 01-2.192 2.064c-.928.501-1.973.752-3.136.752zm0-2.208a3.6 3.6 0 001.792-.448c.534-.31.95-.736 1.248-1.28.31-.544.464-1.163.464-1.856 0-.693-.154-1.312-.464-1.856a3.155 3.155 0 00-1.248-1.264 3.504 3.504 0 00-1.792-.464c-.661 0-1.258.155-1.792.464a3.28 3.28 0 00-1.264 1.264c-.299.544-.448 1.163-.448 1.856 0 .693.15 1.312.448 1.856a3.4 3.4 0 001.264 1.28 3.606 3.606 0 001.792.448zm11.84-2.576l2.032-2.816h2.032l-1.984 2.816 1.984 2.8h-2.032l-2.032-2.8zm3.408 0l2.032-2.816h2.032l-1.984 2.816 1.984 2.8h-2.032l-2.032-2.8zM134.263 26l-.016-6.704-3.296 5.52h-1.152l-3.296-5.392V26h-2.432V14.8h2.144l4.192 6.96 4.128-6.96h2.144l.016 11.2h-2.432zm10.511.192c-1.142 0-2.176-.245-3.104-.736a5.696 5.696 0 01-2.176-2.064c-.523-.885-.784-1.883-.784-2.992 0-1.11.261-2.101.784-2.976a5.543 5.543 0 012.176-2.064c.928-.501 1.968-.752 3.12-.752.97 0 1.845.17 2.624.512.789.341 1.45.832 1.984 1.472l-1.664 1.536c-.758-.875-1.696-1.312-2.816-1.312-.694 0-1.312.155-1.856.464a3.24 3.24 0 00-1.28 1.264c-.299.544-.448 1.163-.448 1.856 0 .693.149 1.312.448 1.856.309.544.736.97 1.28 1.28.544.299 1.162.448 1.856.448 1.12 0 2.058-.443 2.816-1.328l1.664 1.536a5.194 5.194 0 01-1.984 1.488c-.79.341-1.67.512-2.64.512zm10.649-4.704h-1.792V26h-2.576V14.8h2.576v4.528h1.856l2.944-4.528h2.736l-3.664 5.408L161.279 26h-2.944l-2.912-4.512zm6.438 2.72l1.984-2.8-1.984-2.816h2.032l2.032 2.816-2.032 2.8h-2.032zm3.408 0l1.984-2.8-1.984-2.816h2.032l2.032 2.816-2.032 2.8h-2.032zM78.479 31.9V41h-.948v-8.268h-5.76V41h-.948v-9.1h7.657zm5.671 9.165a3.595 3.595 0 01-1.78-.442 3.319 3.319 0 01-1.249-1.248c-.303-.529-.455-1.127-.455-1.794s.152-1.265.455-1.794c.304-.529.72-.94 1.248-1.235a3.595 3.595 0 011.781-.442c.659 0 1.253.147 1.781.442.529.295.94.706 1.235 1.235.304.529.455 1.127.455 1.794s-.151 1.265-.455 1.794a3.223 3.223 0 01-1.235 1.248 3.595 3.595 0 01-1.78.442zm0-.819c.486 0 .919-.108 1.3-.325.39-.225.694-.542.91-.949.217-.407.325-.871.325-1.391s-.108-.984-.325-1.391a2.257 2.257 0 00-.91-.936 2.507 2.507 0 00-1.3-.338 2.58 2.58 0 00-1.313.338 2.367 2.367 0 00-.91.936 2.917 2.917 0 00-.325 1.391c0 .52.109.984.325 1.391.226.407.529.724.91.949.39.217.828.325 1.313.325zm10.996-6.084V41h-.923v-6.019h-3.276l-.091 1.69c-.07 1.421-.234 2.513-.494 3.276-.26.763-.724 1.144-1.391 1.144-.182 0-.403-.035-.663-.104l.065-.793c.156.035.264.052.325.052.355 0 .624-.165.806-.494.182-.33.303-.737.364-1.222.06-.485.113-1.127.156-1.924l.117-2.444h5.005zm8.435 0l-3.419 7.657c-.278.641-.598 1.096-.962 1.365-.364.269-.802.403-1.313.403a2.68 2.68 0 01-.923-.156 2 2 0 01-.741-.468l.429-.689c.346.347.762.52 1.248.52.312 0 .576-.087.793-.26.225-.173.433-.468.624-.884l.299-.663-3.055-6.825h.962l2.574 5.811 2.574-5.811h.91zm4.107 6.903c-.676 0-1.282-.147-1.82-.442a3.233 3.233 0 01-1.248-1.235 3.615 3.615 0 01-.455-1.807c0-.667.152-1.265.455-1.794.304-.529.72-.94 1.248-1.235.538-.295 1.144-.442 1.82-.442.59 0 1.114.117 1.573.351.468.225.837.559 1.105 1.001l-.689.468a2.103 2.103 0 00-.858-.754 2.49 2.49 0 00-1.131-.26c-.494 0-.94.113-1.339.338-.39.217-.697.529-.923.936a2.924 2.924 0 00-.325 1.391c0 .529.109.997.325 1.404.226.399.533.71.923.936.399.217.845.325 1.339.325.408 0 .785-.082 1.131-.247.347-.165.633-.416.858-.754l.689.468c-.268.442-.637.78-1.105 1.014a3.579 3.579 0 01-1.573.338zm10.175-6.903l-3.419 7.657c-.277.641-.598 1.096-.962 1.365-.364.269-.802.403-1.313.403-.329 0-.637-.052-.923-.156a2 2 0 01-.741-.468l.429-.689c.347.347.763.52 1.248.52.312 0 .576-.087.793-.26.225-.173.433-.468.624-.884l.299-.663-3.055-6.825h.962l2.574 5.811 2.574-5.811h.91zM123.184 41l-2.171-2.86-2.184 2.86h-1.04l2.704-3.51-2.574-3.328h1.04l2.054 2.678 2.054-2.678h1.014l-2.574 3.328 2.73 3.51h-1.053zm4.792-6.89c.893 0 1.578.225 2.054.676.477.442.715 1.1.715 1.976V41h-.884v-1.066a2.106 2.106 0 01-.923.832c-.398.2-.875.299-1.43.299-.762 0-1.369-.182-1.82-.546-.45-.364-.676-.845-.676-1.443 0-.58.208-1.049.624-1.404.425-.355 1.097-.533 2.015-.533h2.171v-.416c0-.59-.164-1.036-.494-1.339-.329-.312-.81-.468-1.443-.468-.433 0-.849.074-1.248.221a3.065 3.065 0 00-1.027.585l-.416-.689a3.61 3.61 0 011.248-.676 4.745 4.745 0 011.534-.247zm-.325 6.227c.52 0 .967-.117 1.339-.351.373-.243.65-.59.832-1.04v-1.118h-2.145c-1.17 0-1.755.407-1.755 1.222 0 .399.152.715.455.949.304.225.728.338 1.274.338zm10.803-6.175V41h-.845v-2.262h-2.405L133.618 41h-1.001l1.703-2.392c-.528-.147-.936-.399-1.222-.754-.286-.355-.429-.806-.429-1.352 0-.763.26-1.343.78-1.742s1.231-.598 2.132-.598h2.873zm-4.849 2.366c0 1.014.646 1.521 1.937 1.521h2.067v-3.068h-2.002c-1.334 0-2.002.516-2.002 1.547zm13.743 4.537c-.676 0-1.282-.147-1.82-.442a3.233 3.233 0 01-1.248-1.235 3.615 3.615 0 01-.455-1.807c0-.667.152-1.265.455-1.794.304-.529.72-.94 1.248-1.235.538-.295 1.144-.442 1.82-.442.59 0 1.114.117 1.573.351.468.225.837.559 1.105 1.001l-.689.468a2.103 2.103 0 00-.858-.754 2.49 2.49 0 00-1.131-.26c-.494 0-.94.113-1.339.338-.39.217-.697.529-.923.936a2.924 2.924 0 00-.325 1.391c0 .529.109.997.325 1.404.226.399.533.71.923.936.399.217.845.325 1.339.325.408 0 .785-.082 1.131-.247.347-.165.633-.416.858-.754l.689.468c-.268.442-.637.78-1.105 1.014a3.579 3.579 0 01-1.573.338zm9.149-6.084h-2.587V41h-.923v-6.019H150.4v-.819h6.097v.819zm6.447-.819V41h-.845v-2.262h-2.405L158.108 41h-1.001l1.703-2.392c-.529-.147-.936-.399-1.222-.754-.286-.355-.429-.806-.429-1.352 0-.763.26-1.343.78-1.742s1.23-.598 2.132-.598h2.873zm-4.849 2.366c0 1.014.645 1.521 1.937 1.521h2.067v-3.068h-2.002c-1.335 0-2.002.516-2.002 1.547zm13.473 1.43h-1.482V41h-.923v-3.042h-1.482L165.588 41h-1.105l2.457-3.523-2.262-3.315h1.001l2.002 3.003h1.482v-3.003h.923v3.003h1.482l2.015-3.003h1.001l-2.262 3.328 2.457 3.51h-1.105l-2.106-3.042zm7.231 0h-1.56V41h-.923v-6.838h.923v3.003h1.573l2.405-3.003h1.001l-2.691 3.315L182.413 41h-1.092l-2.522-3.042zm7.296-3.848c.893 0 1.578.225 2.054.676.477.442.715 1.1.715 1.976V41h-.884v-1.066a2.106 2.106 0 01-.923.832c-.398.2-.875.299-1.43.299-.762 0-1.369-.182-1.82-.546-.45-.364-.676-.845-.676-1.443 0-.58.208-1.049.624-1.404.425-.355 1.097-.533 2.015-.533h2.171v-.416c0-.59-.164-1.036-.494-1.339-.329-.312-.81-.468-1.443-.468-.433 0-.849.074-1.248.221a3.065 3.065 0 00-1.027.585l-.416-.689a3.61 3.61 0 011.248-.676 4.745 4.745 0 011.534-.247zm-.325 6.227c.52 0 .967-.117 1.339-.351.373-.243.65-.59.832-1.04v-1.118h-2.145c-1.17 0-1.755.407-1.755 1.222 0 .399.152.715.455.949.304.225.728.338 1.274.338zm15.09-6.175V41h-.923v-6.019h-4.29V41h-.923v-6.838h6.136zm5.445 6.903a3.592 3.592 0 01-1.781-.442 3.313 3.313 0 01-1.248-1.248c-.304-.529-.455-1.127-.455-1.794s.151-1.265.455-1.794a3.22 3.22 0 011.248-1.235 3.592 3.592 0 011.781-.442c.658 0 1.252.147 1.781.442.528.295.94.706 1.235 1.235.303.529.455 1.127.455 1.794s-.152 1.265-.455 1.794a3.23 3.23 0 01-1.235 1.248 3.598 3.598 0 01-1.781.442zm0-.819c.485 0 .918-.108 1.3-.325.39-.225.693-.542.91-.949.216-.407.325-.871.325-1.391s-.109-.984-.325-1.391a2.26 2.26 0 00-.91-.936 2.51 2.51 0 00-1.3-.338c-.486 0-.923.113-1.313.338a2.36 2.36 0 00-.91.936 2.912 2.912 0 00-.325 1.391c0 .52.108.984.325 1.391.225.407.528.724.91.949.39.217.827.325 1.313.325zm10.995-6.084V41h-.923v-6.019h-3.276l-.091 1.69c-.069 1.421-.234 2.513-.494 3.276-.26.763-.724 1.144-1.391 1.144-.182 0-.403-.035-.663-.104l.065-.793c.156.035.264.052.325.052.355 0 .624-.165.806-.494.182-.33.303-.737.364-1.222s.113-1.127.156-1.924l.117-2.444h5.005zm4.977-.052c.893 0 1.577.225 2.054.676.477.442.715 1.1.715 1.976V41h-.884v-1.066a2.112 2.112 0 01-.923.832c-.399.2-.875.299-1.43.299-.763 0-1.369-.182-1.82-.546-.451-.364-.676-.845-.676-1.443 0-.58.208-1.049.624-1.404.425-.355 1.096-.533 2.015-.533h2.171v-.416c0-.59-.165-1.036-.494-1.339-.329-.312-.81-.468-1.443-.468-.433 0-.849.074-1.248.221a3.055 3.055 0 00-1.027.585l-.416-.689a3.61 3.61 0 011.248-.676 4.74 4.74 0 011.534-.247zm-.325 6.227c.52 0 .966-.117 1.339-.351.373-.243.65-.59.832-1.04v-1.118h-2.145c-1.17 0-1.755.407-1.755 1.222 0 .399.152.715.455.949.303.225.728.338 1.274.338zM74.957 52.464c.927.217 1.39.776 1.39 1.677 0 .598-.22 1.057-.662 1.378-.442.32-1.101.481-1.976.481h-3.107v-6.838h3.016c.78 0 1.39.152 1.833.455.442.303.663.737.663 1.3 0 .373-.104.693-.312.962-.2.26-.481.455-.845.585zm-3.458-.26h2.054c.528 0 .931-.1 1.209-.299.286-.2.429-.49.429-.871s-.143-.667-.43-.858c-.277-.19-.68-.286-1.208-.286h-2.054v2.314zm2.17 3.068c.59 0 1.032-.095 1.327-.286.294-.19.442-.49.442-.897 0-.407-.135-.706-.403-.897-.269-.2-.694-.299-1.274-.299h-2.262v2.379h2.17zM91.586 46.9V56h-.923v-7.28l-3.575 6.123h-.455l-3.575-6.084V56h-.923v-9.1h.793l3.952 6.747 3.913-6.747h.793zm5.667 9.165a3.595 3.595 0 01-1.781-.442 3.317 3.317 0 01-1.248-1.248c-.303-.529-.455-1.127-.455-1.794s.151-1.265.455-1.794c.303-.529.72-.94 1.248-1.235a3.595 3.595 0 011.78-.442c.66 0 1.253.147 1.782.442.528.295.94.706 1.235 1.235.303.529.455 1.127.455 1.794s-.152 1.265-.455 1.794a3.226 3.226 0 01-1.235 1.248 3.595 3.595 0 01-1.781.442zm0-.819c.485 0 .919-.108 1.3-.325.39-.225.693-.542.91-.949.216-.407.325-.871.325-1.391s-.109-.984-.325-1.391a2.257 2.257 0 00-.91-.936 2.507 2.507 0 00-1.3-.338c-.486 0-.923.113-1.313.338a2.367 2.367 0 00-.91.936 2.916 2.916 0 00-.325 1.391c0 .52.108.984.325 1.391.225.407.529.724.91.949.39.217.828.325 1.313.325zm8.303.819c-.676 0-1.282-.147-1.82-.442a3.233 3.233 0 01-1.248-1.235 3.615 3.615 0 01-.455-1.807c0-.667.152-1.265.455-1.794.304-.529.72-.94 1.248-1.235.538-.295 1.144-.442 1.82-.442.59 0 1.114.117 1.573.351.468.225.837.559 1.105 1.001l-.689.468a2.103 2.103 0 00-.858-.754 2.49 2.49 0 00-1.131-.26c-.494 0-.94.113-1.339.338-.39.217-.697.529-.923.936a2.924 2.924 0 00-.325 1.391c0 .529.109.997.325 1.404.226.399.533.71.923.936.399.217.845.325 1.339.325.408 0 .785-.082 1.131-.247.347-.165.633-.416.858-.754l.689.468c-.268.442-.637.78-1.105 1.014a3.579 3.579 0 01-1.573.338zm6.949-3.107h-1.56V56h-.923v-6.838h.923v3.003h1.573l2.405-3.003h1.001l-2.691 3.315L116.118 56h-1.092l-2.522-3.042zm9.425-.494c.928.217 1.391.776 1.391 1.677 0 .598-.221 1.057-.663 1.378-.442.32-1.1.481-1.976.481h-3.107v-6.838h3.016c.78 0 1.391.152 1.833.455.442.303.663.737.663 1.3 0 .373-.104.693-.312.962-.199.26-.481.455-.845.585zm-3.458-.26h2.054c.529 0 .932-.1 1.209-.299.286-.2.429-.49.429-.871s-.143-.667-.429-.858c-.277-.19-.68-.286-1.209-.286h-2.054v2.314zm2.171 3.068c.59 0 1.032-.095 1.326-.286.295-.19.442-.49.442-.897 0-.407-.134-.706-.403-.897-.268-.2-.693-.299-1.274-.299h-2.262v2.379h2.171zm10.822-2.405h-5.72c.052.71.325 1.287.819 1.729.494.433 1.118.65 1.872.65a3.03 3.03 0 001.17-.221c.355-.156.663-.381.923-.676l.52.598a2.926 2.926 0 01-1.144.832 3.8 3.8 0 01-1.495.286c-.702 0-1.326-.147-1.872-.442a3.284 3.284 0 01-1.261-1.248c-.304-.529-.455-1.127-.455-1.794s.143-1.265.429-1.794c.294-.529.693-.94 1.196-1.235a3.372 3.372 0 011.716-.442c.632 0 1.2.147 1.703.442.502.295.897.706 1.183 1.235.286.52.429 1.118.429 1.794l-.013.286zm-3.302-2.964c-.659 0-1.214.212-1.664.637-.442.416-.694.962-.754 1.638h4.849c-.061-.676-.317-1.222-.767-1.638-.442-.425-.997-.637-1.664-.637zm8.76-.741h.923v5.434l4.563-5.434h.819V56h-.923v-5.434L137.754 56h-.832v-6.838zm15.174 6.903a3.592 3.592 0 01-1.781-.442 3.313 3.313 0 01-1.248-1.248c-.304-.529-.455-1.127-.455-1.794s.151-1.265.455-1.794a3.22 3.22 0 011.248-1.235 3.592 3.592 0 011.781-.442c.658 0 1.252.147 1.781.442.528.295.94.706 1.235 1.235.303.529.455 1.127.455 1.794s-.152 1.265-.455 1.794a3.23 3.23 0 01-1.235 1.248 3.598 3.598 0 01-1.781.442zm0-.819c.485 0 .918-.108 1.3-.325.39-.225.693-.542.91-.949.216-.407.325-.871.325-1.391s-.109-.984-.325-1.391a2.26 2.26 0 00-.91-.936 2.51 2.51 0 00-1.3-.338c-.486 0-.923.113-1.313.338a2.36 2.36 0 00-.91.936 2.912 2.912 0 00-.325 1.391c0 .52.108.984.325 1.391.225.407.528.724.91.949.39.217.827.325 1.313.325zm8.758-5.915c.633 0 1.196.143 1.69.429.503.277.893.672 1.17 1.183.278.503.416 1.079.416 1.729 0 .667-.147 1.261-.442 1.781a3.03 3.03 0 01-1.209 1.196c-.52.286-1.118.429-1.794.429-1.135 0-2.015-.399-2.639-1.196-.624-.797-.936-1.898-.936-3.302 0-1.465.278-2.587.832-3.367.564-.78 1.439-1.309 2.626-1.586l3.068-.702.156.845-2.886.663c-.979.217-1.698.602-2.158 1.157-.459.546-.71 1.356-.754 2.431.278-.529.663-.94 1.157-1.235.494-.303 1.062-.455 1.703-.455zm-.143 5.98c.477 0 .902-.108 1.274-.325.382-.225.676-.537.884-.936.217-.399.325-.85.325-1.352 0-.503-.104-.945-.312-1.326a2.167 2.167 0 00-.884-.884 2.51 2.51 0 00-1.287-.325c-.485 0-.918.108-1.3.325a2.288 2.288 0 00-.884.884c-.208.381-.312.823-.312 1.326 0 .503.104.953.312 1.352.217.399.516.71.897.936.382.217.811.325 1.287.325zm10.949-6.149V56h-.923v-6.019h-3.276l-.091 1.69c-.069 1.421-.234 2.513-.494 3.276-.26.763-.723 1.144-1.391 1.144-.182 0-.403-.035-.663-.104l.065-.793c.156.035.265.052.325.052.356 0 .624-.165.806-.494.182-.33.304-.737.364-1.222.061-.485.113-1.127.156-1.924l.117-2.444h5.005zm4.977-.052c.893 0 1.578.225 2.054.676.477.442.715 1.1.715 1.976V56h-.884v-1.066a2.106 2.106 0 01-.923.832c-.398.2-.875.299-1.43.299-.762 0-1.369-.182-1.82-.546-.45-.364-.676-.845-.676-1.443 0-.58.208-1.049.624-1.404.425-.355 1.097-.533 2.015-.533h2.171v-.416c0-.59-.164-1.036-.494-1.339-.329-.312-.81-.468-1.443-.468-.433 0-.849.074-1.248.221a3.065 3.065 0 00-1.027.585l-.416-.689a3.61 3.61 0 011.248-.676 4.745 4.745 0 011.534-.247zm-.325 6.227c.52 0 .967-.117 1.339-.351.373-.243.65-.59.832-1.04v-1.118h-2.145c-1.17 0-1.755.407-1.755 1.222 0 .399.152.715.455.949.304.225.728.338 1.274.338zm8.411.728c-.676 0-1.282-.147-1.82-.442a3.233 3.233 0 01-1.248-1.235 3.615 3.615 0 01-.455-1.807c0-.667.152-1.265.455-1.794.304-.529.72-.94 1.248-1.235.538-.295 1.144-.442 1.82-.442.59 0 1.114.117 1.573.351.468.225.837.559 1.105 1.001l-.689.468a2.103 2.103 0 00-.858-.754 2.49 2.49 0 00-1.131-.26c-.494 0-.94.113-1.339.338-.39.217-.697.529-.923.936a2.924 2.924 0 00-.325 1.391c0 .529.109.997.325 1.404.226.399.533.71.923.936.399.217.845.325 1.339.325.408 0 .785-.082 1.131-.247.347-.165.633-.416.858-.754l.689.468c-.268.442-.637.78-1.105 1.014a3.579 3.579 0 01-1.573.338zm9.149-6.084h-2.587V56h-.923v-6.019h-2.587v-.819h6.097v.819zm1.334-.819h.923v5.434l4.563-5.434h.819V56h-.923v-5.434L196.038 56h-.832v-6.838z" fill="#fff"/><defs><linearGradient id="paint0_linear" x1="18.384" y1="34.426" x2="18.384" y2="67.438" gradientUnits="userSpaceOnUse"><stop stop-color="#FF5B14"/><stop offset="1" stop-color="#FF7F47"/></linearGradient><clipPath id="clip0"><path fill="#fff" d="M0 0h61.59v71H0z"/></clipPath></defs></svg>